<?xml version="1.0" encoding="utf-8"?>
<!-- Generator: Adobe Illustrator 25.4.1, SVG Export Plug-In . SVG Version: 6.00 Build 0)  -->
<svg version="1.1" id="Layer_1" xmlns="http://www.w3.org/2000/svg" xmlns:xlink="http://www.w3.org/1999/xlink" x="0px" y="0px"
	 viewBox="0 0 130 130" style="enable-background:new 0 0 130 130;" xml:space="preserve">
<style type="text/css">
	.st0{fill:#FFFFFF;}
	.st1{fill:#816BBF;}
	.st2{fill:#AB98DF;}
	.st3{opacity:0;}
</style>
<path class="st0" d="M95.4,97H84.2c-1.1,0-2-0.9-2-2s0.9-2,2-2h11.2c3.6,0,7.3-0.8,10.6-2.3s6.3-3.8,8.6-6.6c2.3-2.8,4.1-6.1,5-9.6
	s1.1-7.3,0.5-10.8c-0.6-3.6-2-7.1-4.1-10c-2.1-3-4.8-5.5-7.9-7.4c-3.1-1.9-6.7-3-10.3-3.4c-3.6-0.4-7.3,0.1-10.8,1.3
	c-0.9,0.3-1.9-0.1-2.4-0.9c-3-5.4-7.5-9.6-13.1-12.3s-11.7-3.5-17.8-2.5s-11.6,3.9-16,8.2s-7.2,9.9-8.3,15.9
	c-0.1,0.7-0.6,1.3-1.4,1.6c-0.1,0-0.3,0.1-0.4,0.1c-4.9,0.7-9.3,3.2-12.5,7c-3.1,3.8-4.7,8.7-4.3,13.6c0.3,4.9,2.5,9.5,6.1,12.9
	c2.6,2.4,5.6,3.7,6.1,3.9c1.1,0.4,2.1,0.7,2.8,0.9c1.1,0.2,1.8,1.3,1.5,2.4c-0.2,1.1-1.3,1.8-2.4,1.5c-0.8-0.2-2-0.5-3.4-1
	c-0.7-0.3-4.3-1.8-7.4-4.7c-4.4-4.1-7-9.6-7.4-15.6c-0.4-6,1.4-11.8,5.2-16.4c3.5-4.3,8.3-7.1,13.6-8.2c1.4-6.3,4.5-12.1,9.1-16.7
	c5-4.9,11.2-8.2,18.1-9.3c6.9-1.2,13.9-0.2,20.2,2.8c5.8,2.8,10.6,7.1,14,12.5c3.5-1,7.3-1.4,10.9-1c4.2,0.4,8.3,1.8,12,3.9
	c3.6,2.1,6.8,5.1,9.2,8.6s4,7.5,4.7,11.6c0.7,4.2,0.5,8.5-0.6,12.6s-3.1,7.9-5.8,11.1c-2.7,3.2-6.2,5.9-10,7.6
	C103.9,96.1,99.6,97,95.4,97z"/>
<path class="st1" d="M98.9,65.6c-0.3-0.3-0.6-0.4-1-0.4h-2c-0.3,0-0.5,0-0.8-0.1c-0.2-0.1-0.5-0.2-0.6-0.4c-0.4-0.4-0.6-0.9-0.6-1.4
	s0.2-1,0.6-1.4l1.3-1.5c0.3-0.3,0.4-0.6,0.4-1c0-0.4-0.1-0.7-0.4-1l-4-4c-0.3-0.3-0.6-0.4-1-0.4s-0.7,0.1-1,0.4l-1.4,1.4
	c-0.3,0.3-0.6,0.4-1,0.5c-0.4,0.1-0.8,0-1.1-0.1c-0.3-0.1-0.7-0.4-0.9-0.7c-0.2-0.3-0.3-0.7-0.3-1.1v-2c0-0.4-0.2-0.7-0.4-1
	c-0.3-0.3-0.6-0.4-1-0.4H78c-0.4,0-0.7,0.1-1,0.4c-0.3,0.3-0.4,0.6-0.4,1v2c0,0.5-0.2,1-0.6,1.4c-0.4,0.4-0.9,0.6-1.4,0.6
	s-1-0.2-1.4-0.6l-1.4-1.4c-0.3-0.3-0.6-0.4-1-0.4s-0.7,0.1-1,0.4l-3.9,4c-0.3,0.3-0.4,0.6-0.4,1c0,0.4,0.1,0.7,0.4,1l1.4,1.4
	c0.4,0.4,0.6,0.9,0.6,1.4s-0.2,1-0.6,1.4s-0.9,0.6-1.4,0.6h-2.1c-0.2,0-0.4,0-0.5,0.1c-0.2,0.1-0.3,0.2-0.5,0.3
	c-0.1,0.1-0.2,0.3-0.3,0.5c-0.1,0.2-0.1,0.4-0.1,0.5v5.7c0,0.2,0,0.4,0.1,0.6c0.1,0.2,0.2,0.3,0.3,0.5c0.1,0.1,0.3,0.2,0.5,0.3
	c0.2,0.1,0.4,0.1,0.6,0.1h2c0.4,0,0.8,0.1,1.1,0.3c0.3,0.2,0.6,0.5,0.7,0.9s0.2,0.7,0.1,1.1s-0.2,0.7-0.5,1L67.2,77H71
	c0.1-0.3,0.3-0.6,0.3-1c0.2-0.9,0.1-1.8-0.3-2.6c-0.3-0.8-0.9-1.5-1.7-2s-1.6-0.8-2.5-0.8h-0.6V68h0.6c0.9,0,1.8-0.3,2.5-0.8
	s1.3-1.2,1.7-2c0.3-0.8,0.4-1.7,0.3-2.6c-0.2-0.9-0.6-1.7-1.2-2.3l-0.4-0.4l1.9-1.9l0.4,0.4c0.6,0.6,1.4,1.1,2.3,1.2
	c0.9,0.2,1.8,0.1,2.6-0.3c0.8-0.3,1.5-0.9,2-1.7c0.5-0.7,0.8-1.6,0.8-2.5v-0.6h2.7v0.6c0,0.9,0.3,1.8,0.8,2.5c0.5,0.7,1.2,1.3,2,1.7
	c0.8,0.3,1.7,0.4,2.6,0.3c0.9-0.1,1.7-0.6,2.3-1.2l0.4-0.4l1.9,1.9L92,60.3c-0.6,0.6-1.1,1.4-1.2,2.3c-0.2,0.9-0.1,1.8,0.3,2.6
	c0.3,0.8,0.9,1.5,1.7,2c0.7,0.5,1.6,0.8,2.5,0.8h0.6v2.7H95c-0.9,0-1.8,0.3-2.5,0.8c-0.7,0.5-1.3,1.2-1.7,2
	c-0.3,0.8-0.4,1.7-0.3,2.6c0.2,0.9,0.6,1.7,1.2,2.3l0.4,0.4l-1.9,1.9L90,80.2c-0.6-0.6-1.4-1.1-2.3-1.2c-0.9-0.2-1.8-0.1-2.6,0.3
	c-0.8,0.3-1.5,0.9-2,1.7s-0.8,1.6-0.8,2.5V84h-2.7v-0.6c0-0.9-0.3-1.8-0.8-2.5c-0.5-0.7-1.2-1.3-2-1.7c-0.8-0.3-1.7-0.4-2.6-0.3
	c-0.3,0.1-0.6,0.2-1,0.3v3.6c0.3-0.2,0.6-0.4,0.9-0.4c0.4-0.1,0.8,0,1.1,0.1c0.4,0.1,0.7,0.4,0.9,0.7c0.2,0.3,0.3,0.7,0.3,1.1v2
	c0,0.4,0.1,0.7,0.4,1c0.3,0.3,0.6,0.4,1,0.4h5.7c0.2,0,0.4,0,0.6-0.1c0.2-0.1,0.3-0.2,0.5-0.3c0.1-0.1,0.2-0.3,0.3-0.5
	c0.1-0.2,0.1-0.4,0.1-0.6v-1.9c0-0.4,0.1-0.8,0.3-1.1c0.2-0.3,0.5-0.6,0.9-0.7c0.4-0.2,0.7-0.2,1.1-0.1s0.7,0.2,1,0.5l1.4,1.4
	c0.3,0.3,0.6,0.4,1,0.4s0.7-0.1,1-0.4l4-4c0.3-0.3,0.4-0.6,0.4-1c0-0.4-0.1-0.7-0.4-1L94.5,77c-0.3-0.3-0.4-0.6-0.5-1
	c-0.1-0.4,0-0.8,0.1-1.1c0.1-0.4,0.4-0.7,0.7-0.9s0.7-0.3,1.1-0.3h2c0.4,0,0.7-0.2,1-0.4c0.3-0.3,0.4-0.6,0.4-1v-5.7
	C99.3,66.2,99.2,65.8,98.9,65.6z"/>
<path class="st1" d="M80.9,62.9c-1.3,0-2.5,0.4-3.6,1.1c-1.1,0.7-1.9,1.7-2.4,2.9c-0.5,1.2-0.6,2.5-0.4,3.8c0.3,1.3,0.9,2.4,1.8,3.3
	c0.9,0.9,2.1,1.5,3.3,1.8c1.3,0.3,2.6,0.1,3.8-0.4c1.2-0.5,2.2-1.3,2.9-2.4c0.7-1.1,1.1-2.3,1.1-3.6c0-1.7-0.7-3.4-1.9-4.6
	C84.2,63.5,82.6,62.9,80.9,62.9z M82.9,70.7c-0.3,0.4-0.7,0.7-1.1,0.9c-0.4,0.2-1,0.2-1.4,0.1c-0.5-0.1-0.9-0.3-1.3-0.7
	c-0.3-0.3-0.6-0.8-0.7-1.3s0-1,0.1-1.4c0.2-0.5,0.5-0.8,0.9-1.1c0.4-0.3,0.9-0.4,1.4-0.4c0.7,0,1.3,0.3,1.8,0.7
	c0.5,0.5,0.7,1.1,0.7,1.8C83.4,69.9,83.2,70.3,82.9,70.7z"/>
<path class="st2" d="M78.9,89.1c-0.3-0.3-0.8-0.5-1.3-0.5H75c-0.5,0-1-0.1-1.4-0.4c-0.4-0.3-0.8-0.7-1-1.1c-0.2-0.5-0.3-1-0.2-1.5
	s0.3-1,0.7-1.3l1.8-1.8c0.3-0.3,0.5-0.8,0.5-1.3s-0.2-1-0.5-1.3l-5.2-5.2C69.4,74.2,69,74,68.5,74s-1,0.2-1.3,0.5l-1.8,1.8
	C65,76.7,64.5,76.9,64,77c-0.5,0.1-1,0-1.5-0.2c-0.5-0.2-0.9-0.5-1.1-0.9C61.1,75.5,61,75,61,74.5v-2.7c0-0.2,0-0.5-0.1-0.7
	c-0.1-0.2-0.2-0.4-0.4-0.6s-0.4-0.3-0.6-0.4C59.7,70,59.4,70,59.2,70h-7.4c-0.5,0-1,0.2-1.3,0.5S50,71.3,50,71.8v2.6
	c0,0.5-0.1,1-0.4,1.4c-0.3,0.4-0.7,0.7-1.1,0.9c-0.5,0.2-1,0.3-1.5,0.2s-0.9-0.3-1.3-0.7l-1.8-1.8c-0.2-0.2-0.4-0.3-0.6-0.4
	s-0.5-0.1-0.7-0.1s-0.5,0-0.7,0.1c-0.2,0.1-0.4,0.2-0.6,0.4L36,79.7c-0.3,0.3-0.5,0.8-0.5,1.3s0.2,1,0.5,1.3l1.8,1.8
	c0.4,0.4,0.6,0.8,0.7,1.3c0.1,0.5,0,1-0.2,1.5s-0.5,0.9-1,1.1c-0.4,0.3-0.9,0.4-1.4,0.4h-2.7c-0.5,0-1,0.2-1.3,0.5
	c-0.3,0.3-0.5,0.8-0.5,1.3v7.4c0,0.5,0.2,1,0.5,1.3c0.3,0.3,0.8,0.5,1.3,0.5h2.6c0.5,0,1,0.1,1.4,0.4c0.4,0.3,0.7,0.7,0.9,1.1
	c0.2,0.5,0.3,1,0.2,1.5s-0.3,1-0.7,1.3l-1.8,1.8c-0.2,0.2-0.3,0.4-0.4,0.6c-0.1,0.2-0.1,0.5-0.1,0.7c0,0.2,0,0.5,0.1,0.7
	c0.1,0.2,0.2,0.4,0.4,0.6l5.2,5.1c0.3,0.3,0.8,0.5,1.3,0.5s1-0.2,1.3-0.5l1.8-1.8c0.4-0.4,0.8-0.6,1.3-0.7c0.5-0.1,1,0,1.5,0.2
	c0.5,0.2,0.9,0.5,1.1,0.9c0.3,0.4,0.4,0.9,0.4,1.4v2.7c0,0.5,0.2,1,0.5,1.3c0.3,0.3,0.8,0.5,1.3,0.5h7.4c0.5,0,0.9-0.2,1.3-0.6
	c0.3-0.3,0.5-0.8,0.5-1.3v-2.5c0-0.5,0.1-1,0.4-1.4s0.7-0.8,1.1-1c0.5-0.2,1-0.3,1.5-0.2c0.5,0.1,1,0.3,1.3,0.7l1.8,1.8
	c0.2,0.2,0.4,0.3,0.6,0.4c0.2,0.1,0.5,0.1,0.7,0.1c0.2,0,0.5,0,0.7-0.1s0.4-0.2,0.6-0.4l5.2-5.2c0.3-0.3,0.5-0.8,0.5-1.3
	s-0.2-1-0.5-1.3l-1.8-1.8c-0.4-0.4-0.6-0.8-0.7-1.3c-0.1-0.5,0-1,0.2-1.5s0.5-0.9,1-1.1c0.4-0.3,0.9-0.4,1.4-0.4h2.6
	c0.5,0,1-0.2,1.3-0.5c0.3-0.3,0.5-0.8,0.5-1.3v-7.4C79.4,89.9,79.3,89.4,78.9,89.1z M75.5,95.8h-0.7c-0.8,0-1.6,0.2-2.4,0.5
	c-0.7,0.3-1.4,0.8-2,1.3c-1.1,1.2-1.8,2.7-1.8,4.3s0.6,3.2,1.8,4.3l0.6,0.6l-2.6,2.6l-0.6-0.6c-1.2-1.2-2.7-1.8-4.3-1.8
	c-0.8,0-1.6,0.2-2.4,0.5s-1.4,0.8-2,1.3c-0.6,0.6-1,1.3-1.3,2c-0.3,0.8-0.5,1.6-0.4,2.4v0.8h-3.6v-0.8c0-0.8-0.2-1.6-0.5-2.4
	c-0.3-0.7-0.8-1.4-1.3-2c-1.2-1.1-2.7-1.8-4.3-1.8c-1.6,0-3.2,0.6-4.3,1.8l-0.6,0.6l-2.6-2.6l0.6-0.6c0.9-0.9,1.4-1.9,1.7-3.1
	c0.2-1.2,0.1-2.4-0.3-3.5c-0.5-1.1-1.3-2.1-2.3-2.8c-1-0.7-2.2-1-3.4-1h-0.8v-3.6h0.8c0.8,0,1.6-0.2,2.4-0.5c0.8-0.3,1.4-0.8,2-1.3
	c1.1-1.2,1.8-2.7,1.8-4.3s-0.6-3.2-1.8-4.3l-0.6-0.6l2.6-2.6l0.6,0.6c0.9,0.9,1.9,1.4,3.1,1.7c1.2,0.2,2.4,0.1,3.5-0.3
	c1.1-0.5,2.1-1.3,2.8-2.3c0.7-1,1-2.2,1-3.4V74h3.6v0.8c0,0.8,0.2,1.6,0.5,2.4c0.3,0.7,0.8,1.4,1.3,2c1.2,1.1,2.7,1.8,4.3,1.8
	c1.6,0,3.2-0.6,4.3-1.8l0.6-0.6l2.6,2.6l-0.6,0.6c-1.2,1.2-1.8,2.7-1.8,4.4c0,0.8,0.2,1.6,0.5,2.3c0.3,0.7,0.8,1.4,1.3,2
	c0.6,0.6,1.2,1,2,1.3c0.7,0.3,1.5,0.5,2.3,0.5h0.8v3.5H75.5z"/>
<path class="st2" d="M55.5,85c-1.8,0-3.5,0.5-5,1.5s-2.6,2.4-3.3,4s-0.9,3.5-0.5,5.2c0.3,1.7,1.2,3.3,2.5,4.6
	c1.3,1.3,2.9,2.1,4.6,2.5c1.7,0.4,3.6,0.2,5.2-0.5c1.6-0.7,3.1-1.8,4-3.3c1-1.5,1.5-3.2,1.5-5c0-2.4-0.9-4.7-2.6-6.4
	C60.1,85.9,57.9,85,55.5,85z M59,97.5c-0.9,0.9-2.2,1.5-3.5,1.5c-1,0-2-0.3-2.8-0.8s-1.5-1.3-1.8-2.2c-0.4-1-0.5-2-0.3-3
	c0.2-1,0.7-1.9,1.4-2.6c0.7-0.7,1.6-1.2,2.6-1.4s2-0.1,2.9,0.3c0.9,0.4,1.7,1,2.2,1.8c0.5,0.8,0.8,1.8,0.8,2.8
	C60.5,95.3,59.9,96.6,59,97.5z"/>
<rect y="0.5" class="st3" width="130" height="130"/>
</svg>
