<svg width="100" height="100" viewBox="0 0 100 100" fill="none" xmlns="http://www.w3.org/2000/svg">
<path d="M35 19C36.1046 19 37 18.1046 37 17C37 15.8954 36.1046 15 35 15C33.8954 15 33 15.8954 33 17C33 18.1046 33.8954 19 35 19Z" fill="#4992FF"/>
<path d="M47 19C48.1046 19 49 18.1046 49 17C49 15.8954 48.1046 15 47 15C45.8954 15 45 15.8954 45 17C45 18.1046 45.8954 19 47 19Z" fill="#4992FF"/>
<path d="M41 19C42.1046 19 43 18.1046 43 17C43 15.8954 42.1046 15 41 15C39.8954 15 39 15.8954 39 17C39 18.1046 39.8954 19 41 19Z" fill="#4992FF"/>
<path d="M17 44C18.1046 44 19 43.1046 19 42C19 40.8954 18.1046 40 17 40C15.8954 40 15 40.8954 15 42C15 43.1046 15.8954 44 17 44Z" fill="#4992FF"/>
<path d="M29 44C30.1046 44 31 43.1046 31 42C31 40.8954 30.1046 40 29 40C27.8954 40 27 40.8954 27 42C27 43.1046 27.8954 44 29 44Z" fill="#4992FF"/>
<path d="M23 44C24.1046 44 25 43.1046 25 42C25 40.8954 24.1046 40 23 40C21.8954 40 21 40.8954 21 42C21 43.1046 21.8954 44 23 44Z" fill="#4992FF"/>
<path d="M17 57H23C23.5304 57 24.0391 56.7893 24.4142 56.4142C24.7893 56.0391 25 55.5304 25 55C25 54.4696 24.7893 53.9609 24.4142 53.5858C24.0391 53.2107 23.5304 53 23 53H17C16.4696 53 15.9609 53.2107 15.5858 53.5858C15.2107 53.9609 15 54.4696 15 55C15 55.5304 15.2107 56.0391 15.5858 56.4142C15.9609 56.7893 16.4696 57 17 57Z" fill="#4992FF"/>
<path d="M21 61C21 61.5304 21.2107 62.0391 21.5858 62.4142C21.9609 62.7893 22.4696 63 23 63H27C27.5304 63 28.0391 62.7893 28.4142 62.4142C28.7893 62.0391 29 61.5304 29 61C29 60.4696 28.7893 59.9609 28.4142 59.5858C28.0391 59.2107 27.5304 59 27 59H23C22.4696 59 21.9609 59.2107 21.5858 59.5858C21.2107 59.9609 21 60.4696 21 61Z" fill="#4992FF"/>
<path d="M51 59H33C32.4696 59 31.9609 59.2107 31.5858 59.5858C31.2107 59.9609 31 60.4696 31 61C31 61.5304 31.2107 62.0391 31.5858 62.4142C31.9609 62.7893 32.4696 63 33 63H51C51.5304 63 52.0391 62.7893 52.4142 62.4142C52.7893 62.0391 53 61.5304 53 61C53 60.4696 52.7893 59.9609 52.4142 59.5858C52.0391 59.2107 51.5304 59 51 59Z" fill="#4992FF"/>
<path d="M62 59H57C56.4696 59 55.9609 59.2107 55.5858 59.5858C55.2107 59.9609 55 60.4696 55 61C55 61.5304 55.2107 62.0391 55.5858 62.4142C55.9609 62.7893 56.4696 63 57 63H62C62.5304 63 63.0391 62.7893 63.4142 62.4142C63.7893 62.0391 64 61.5304 64 61C64 60.4696 63.7893 59.9609 63.4142 59.5858C63.0391 59.2107 62.5304 59 62 59Z" fill="#4992FF"/>
<path d="M45 66H23C22.4696 66 21.9609 66.2107 21.5858 66.5858C21.2107 66.9609 21 67.4696 21 68C21 68.5304 21.2107 69.0391 21.5858 69.4142C21.9609 69.7893 22.4696 70 23 70H45C45.5304 70 46.0391 69.7893 46.4142 69.4142C46.7893 69.0391 47 68.5304 47 68C47 67.4696 46.7893 66.9609 46.4142 66.5858C46.0391 66.2107 45.5304 66 45 66Z" fill="#4992FF"/>
<path d="M32 73H17C16.4696 73 15.9609 73.2107 15.5858 73.5858C15.2107 73.9609 15 74.4696 15 75C15 75.5304 15.2107 76.0391 15.5858 76.4142C15.9609 76.7893 16.4696 77 17 77H32C32.5304 77 33.0391 76.7893 33.4142 76.4142C33.7893 76.0391 34 75.5304 34 75C34 74.4696 33.7893 73.9609 33.4142 73.5858C33.0391 73.2107 32.5304 73 32 73Z" fill="#4992FF"/>
<path d="M32 80H23C22.4696 80 21.9609 80.2107 21.5858 80.5858C21.2107 80.9609 21 81.4696 21 82C21 82.5304 21.2107 83.0391 21.5858 83.4142C21.9609 83.7893 22.4696 84 23 84H32C32.5304 84 33.0391 83.7893 33.4142 83.4142C33.7893 83.0391 34 82.5304 34 82C34 81.4696 33.7893 80.9609 33.4142 80.5858C33.0391 80.2107 32.5304 80 32 80Z" fill="#4992FF"/>
<path d="M45 80H38C37.4696 80 36.9609 80.2107 36.5858 80.5858C36.2107 80.9609 36 81.4696 36 82C36 82.5304 36.2107 83.0391 36.5858 83.4142C36.9609 83.7893 37.4696 84 38 84H45C45.5304 84 46.0391 83.7893 46.4142 83.4142C46.7893 83.0391 47 82.5304 47 82C47 81.4696 46.7893 80.9609 46.4142 80.5858C46.0391 80.2107 45.5304 80 45 80Z" fill="#4992FF"/>
<path d="M89 8H30C28.9391 8 27.9217 8.42142 27.1716 9.17157C26.4214 9.92172 26 10.9391 26 12V33H12C10.9391 33 9.92172 33.4214 9.17157 34.1716C8.42142 34.9217 8 35.9391 8 37V87C8 88.0609 8.42142 89.0783 9.17157 89.8284C9.92172 90.5786 10.9391 91 12 91H71C72.0609 91 73.0783 90.5786 73.8284 89.8284C74.5786 89.0783 75 88.0609 75 87V66H89C90.0609 66 91.0783 65.5786 91.8284 64.8284C92.5786 64.0783 93 63.0609 93 62V12C93 10.9391 92.5786 9.92172 91.8284 9.17157C91.0783 8.42142 90.0609 8 89 8ZM89 12V21H30V12H89ZM71 37V46H12V37H71ZM12 87V50H71V87H12ZM75 62V37C75 35.9391 74.5786 34.9217 73.8284 34.1716C73.0783 33.4214 72.0609 33 71 33H30V25H89V62H75Z" fill="#4992FF"/>
</svg>
