<?xml version="1.0" encoding="utf-8"?>
<!-- Generator: Adobe Illustrator 25.4.1, SVG Export Plug-In . SVG Version: 6.00 Build 0)  -->
<svg version="1.1" id="Layer_1" xmlns="http://www.w3.org/2000/svg" xmlns:xlink="http://www.w3.org/1999/xlink" x="0px" y="0px"
	 viewBox="0 0 130 130" style="enable-background:new 0 0 130 130;" xml:space="preserve">
<style type="text/css">
	.st0{fill:#FFFFFF;}
	.st1{fill:#4992FF;}
	.st2{opacity:0;}
</style>
<path class="st0" d="M66,28c-2.2,0-4.3-0.6-6.1-1.9c-1.8-1.2-3.2-2.9-4.1-4.9c-0.8-2-1.1-4.2-0.6-6.4c0.4-2.1,1.5-4.1,3-5.6
	c1.5-1.5,3.5-2.6,5.6-3C66,5.8,68.2,6,70.2,6.8c2,0.8,3.7,2.2,4.9,4.1c1.2,1.8,1.9,3.9,1.9,6.1c0,2.9-1.2,5.7-3.2,7.8
	C71.7,26.8,68.9,28,66,28z M66,10c-1.4,0-2.7,0.4-3.9,1.2c-1.2,0.8-2,1.9-2.6,3.1s-0.7,2.7-0.4,4c0.3,1.4,0.9,2.6,1.9,3.6
	c1,1,2.2,1.6,3.6,1.9c1.4,0.3,2.8,0.1,4-0.4c1.3-0.5,2.4-1.4,3.1-2.6c0.8-1.2,1.2-2.5,1.2-3.9c0-1.9-0.7-3.6-2.1-4.9
	C69.6,10.7,67.9,10,66,10L66,10z"/>
<path class="st0" d="M68,25h-4v36h4V25z"/>
<path class="st0" d="M99,43.4v0.4c0,1.7-0.7,3.3-1.8,4.4C96,49.3,94.4,50,92.7,50H58c-2.8,0-5.6,1-7.7,2.8c-2.2,1.8-3.6,4.4-4.1,7.2
	h4.1c0.4-1.7,1.4-3.2,2.8-4.3c1.4-1.1,3.1-1.7,4.9-1.7h34.7c2.7,0,5.3-1.1,7.3-3c1.9-1.9,3-4.5,3-7.3v-0.4c0-0.1,0-0.2-0.1-0.3
	s-0.2-0.1-0.3-0.1h-3.3c0,0-0.1,0-0.1,0s-0.1,0-0.1,0.1c0,0-0.1,0.1-0.1,0.1C99,43.3,99,43.3,99,43.4L99,43.4z"/>
<path class="st0" d="M68,35H40v4h28c2.7,0,5.2,1.1,7.1,2.9c1.9,1.9,2.9,4.4,2.9,7.1v13h4V49c0-3.7-1.5-7.3-4.1-9.9
	C75.3,36.5,71.7,35,68,35L68,35z"/>
<path class="st1" d="M48,68c0-1.1-0.9-2-2-2s-2,0.9-2,2s0.9,2,2,2S48,69.1,48,68z"/>
<path class="st1" d="M54,82H33c-1.1,0-2,0.9-2,2s0.9,2,2,2h21c1.1,0,2-0.9,2-2S55.1,82,54,82z"/>
<path class="st1" d="M45,90H33c-1.1,0-2,0.9-2,2s0.9,2,2,2h12c1.1,0,2-0.9,2-2S46.1,90,45,90z"/>
<path class="st1" d="M65,98H33c-1.1,0-2,0.9-2,2c0,1.1,0.9,2,2,2h32c1.1,0,2-0.9,2-2C67,98.9,66.1,98,65,98z"/>
<path class="st1" d="M83,82H62c-1.1,0-2,0.9-2,2s0.9,2,2,2h21c1.1,0,2-0.9,2-2S84.1,82,83,82z"/>
<path class="st1" d="M62,90h-9c-1.1,0-2,0.9-2,2s0.9,2,2,2h9c1.1,0,2-0.9,2-2S63.1,90,62,90z"/>
<path class="st1" d="M97,90H70c-1.1,0-2,0.9-2,2s0.9,2,2,2h27c1.1,0,2-0.9,2-2S98.1,90,97,90z"/>
<path class="st1" d="M82,98h-9c-1.1,0-2,0.9-2,2c0,1.1,0.9,2,2,2h9c1.1,0,2-0.9,2-2C84,98.9,83.1,98,82,98z"/>
<path class="st1" d="M102,124H28c-1.6,0-3.1-0.6-4.2-1.8c-1.1-1.1-1.8-2.7-1.8-4.2V65c0-1.6,0.6-3.1,1.8-4.2
	c1.1-1.1,2.7-1.8,4.2-1.8h74c1.6,0,3.1,0.6,4.2,1.8c1.1,1.1,1.8,2.7,1.8,4.2v53c0,1.6-0.6,3.1-1.8,4.2
	C105.1,123.4,103.6,124,102,124z M28,63c-0.5,0-1,0.2-1.4,0.6C26.2,64,26,64.5,26,65v53c0,0.5,0.2,1,0.6,1.4
	c0.4,0.4,0.9,0.6,1.4,0.6h74c0.5,0,1-0.2,1.4-0.6s0.6-0.9,0.6-1.4V65c0-0.5-0.2-1-0.6-1.4S102.5,63,102,63H28z"/>
<path class="st1" d="M106,73H24v4h82V73z"/>
<path class="st1" d="M41,68c0-1.1-0.9-2-2-2s-2,0.9-2,2s0.9,2,2,2S41,69.1,41,68z"/>
<path class="st1" d="M34,68c0-1.1-0.9-2-2-2c-1.1,0-2,0.9-2,2s0.9,2,2,2C33.1,70,34,69.1,34,68z"/>
<path class="st0" d="M100,47c-2.2,0-4.3-0.6-6.1-1.9c-1.8-1.2-3.2-2.9-4.1-4.9c-0.8-2-1.1-4.2-0.6-6.4c0.4-2.1,1.5-4.1,3-5.6
	c1.5-1.5,3.5-2.6,5.6-3c2.1-0.4,4.3-0.2,6.4,0.6c2,0.8,3.7,2.2,4.9,4.1c1.2,1.8,1.9,3.9,1.9,6.1c0,2.9-1.2,5.7-3.2,7.8
	C105.7,45.8,102.9,47,100,47z M100,29c-1.4,0-2.7,0.4-3.9,1.2c-1.2,0.8-2,1.9-2.6,3.1c-0.5,1.3-0.7,2.7-0.4,4
	c0.3,1.4,0.9,2.6,1.9,3.6c1,1,2.2,1.6,3.6,1.9c1.4,0.3,2.8,0.1,4-0.4c1.3-0.5,2.4-1.4,3.1-2.6c0.8-1.2,1.2-2.5,1.2-3.9
	c0-1.9-0.7-3.6-2.1-4.9C103.6,29.7,101.9,29,100,29z"/>
<path class="st0" d="M32,48c-2.2,0-4.3-0.6-6.1-1.9c-1.8-1.2-3.2-2.9-4.1-4.9c-0.8-2-1.1-4.2-0.6-6.4c0.4-2.1,1.5-4.1,3-5.6
	c1.5-1.5,3.5-2.6,5.6-3c2.1-0.4,4.3-0.2,6.4,0.6c2,0.8,3.7,2.2,4.9,4.1c1.2,1.8,1.9,3.9,1.9,6.1c0,2.9-1.2,5.7-3.2,7.8
	C37.7,46.8,34.9,48,32,48z M32,30c-1.4,0-2.7,0.4-3.9,1.2c-1.2,0.8-2,1.9-2.6,3.1c-0.5,1.3-0.7,2.7-0.4,4c0.3,1.4,0.9,2.6,1.9,3.6
	c1,1,2.2,1.6,3.6,1.9c1.4,0.3,2.8,0.1,4-0.4c1.3-0.5,2.4-1.4,3.1-2.6c0.8-1.2,1.2-2.5,1.2-3.9c0-1.9-0.7-3.6-2.1-4.9
	C35.6,30.7,33.9,30,32,30L32,30z"/>
<path class="st1" d="M49,106H33c-1.1,0-2,0.9-2,2s0.9,2,2,2h16c1.1,0,2-0.9,2-2S50.1,106,49,106z"/>
<path class="st1" d="M71,106H57c-1.1,0-2,0.9-2,2s0.9,2,2,2h14c1.1,0,2-0.9,2-2S72.1,106,71,106z"/>
<rect class="st2" width="130" height="130"/>
</svg>
