<svg width="100" height="100" viewBox="0 0 100 100" fill="none" xmlns="http://www.w3.org/2000/svg">
<path d="M31.0352 91H11.0352C10.5047 91 9.99604 90.7893 9.62097 90.4142C9.2459 90.0391 9.03516 89.5304 9.03516 89V75C9.03516 74.4696 9.2459 73.9609 9.62097 73.5858C9.99604 73.2107 10.5047 73 11.0352 73H31.0352C31.5656 73 32.0743 73.2107 32.4493 73.5858C32.8244 73.9609 33.0352 74.4696 33.0352 75V89C33.0352 89.5304 32.8244 90.0391 32.4493 90.4142C32.0743 90.7893 31.5656 91 31.0352 91ZM13.0352 87H29.0352V77H13.0352V87Z" fill="#4992FF"/>
<path d="M21.0352 96C20.5047 96 19.996 95.7893 19.621 95.4142C19.2459 95.0391 19.0352 94.5304 19.0352 94V89C19.0352 88.4696 19.2459 87.9609 19.621 87.5858C19.996 87.2107 20.5047 87 21.0352 87C21.5656 87 22.0743 87.2107 22.4493 87.5858C22.8244 87.9609 23.0352 88.4696 23.0352 89V94C23.0352 94.5304 22.8244 95.0391 22.4493 95.4142C22.0743 95.7893 21.5656 96 21.0352 96Z" fill="#4992FF"/>
<path d="M24.1755 96H17.8955C17.3651 96 16.8564 95.7893 16.4813 95.4142C16.1063 95.0391 15.8955 94.5304 15.8955 94C15.8955 93.4696 16.1063 92.9609 16.4813 92.5858C16.8564 92.2107 17.3651 92 17.8955 92H24.1755C24.706 92 25.2146 92.2107 25.5897 92.5858C25.9648 92.9609 26.1755 93.4696 26.1755 94C26.1755 94.5304 25.9648 95.0391 25.5897 95.4142C25.2146 95.7893 24.706 96 24.1755 96Z" fill="#4992FF"/>
<path d="M23.0352 62C23.0352 60.8954 22.1397 60 21.0352 60C19.9306 60 19.0352 60.8954 19.0352 62V68C19.0352 69.1046 19.9306 70 21.0352 70C22.1397 70 23.0352 69.1046 23.0352 68V62Z" fill="#4992FF"/>
<path d="M60.0352 91H40.0352C39.5047 91 38.996 90.7893 38.621 90.4142C38.2459 90.0391 38.0352 89.5304 38.0352 89V75C38.0352 74.4696 38.2459 73.9609 38.621 73.5858C38.996 73.2107 39.5047 73 40.0352 73H60.0352C60.5656 73 61.0743 73.2107 61.4493 73.5858C61.8244 73.9609 62.0352 74.4696 62.0352 75V89C62.0352 89.5304 61.8244 90.0391 61.4493 90.4142C61.0743 90.7893 60.5656 91 60.0352 91ZM42.0352 87H58.0352V77H42.0352V87Z" fill="#4992FF"/>
<path d="M50.0352 96C49.5047 96 48.996 95.7893 48.621 95.4142C48.2459 95.0391 48.0352 94.5304 48.0352 94V89C48.0352 88.4696 48.2459 87.9609 48.621 87.5858C48.996 87.2107 49.5047 87 50.0352 87C50.5656 87 51.0743 87.2107 51.4493 87.5858C51.8244 87.9609 52.0352 88.4696 52.0352 89V94C52.0352 94.5304 51.8244 95.0391 51.4493 95.4142C51.0743 95.7893 50.5656 96 50.0352 96Z" fill="#4992FF"/>
<path d="M53.1755 96H46.8955C46.3651 96 45.8564 95.7893 45.4813 95.4142C45.1063 95.0391 44.8955 94.5304 44.8955 94C44.8955 93.4696 45.1063 92.9609 45.4813 92.5858C45.8564 92.2107 46.3651 92 46.8955 92H53.1755C53.706 92 54.2146 92.2107 54.5897 92.5858C54.9648 92.9609 55.1755 93.4696 55.1755 94C55.1755 94.5304 54.9648 95.0391 54.5897 95.4142C54.2146 95.7893 53.706 96 53.1755 96Z" fill="#4992FF"/>
<path d="M52.0352 62C52.0352 60.8954 51.1397 60 50.0352 60C48.9306 60 48.0352 60.8954 48.0352 62V68C48.0352 69.1046 48.9306 70 50.0352 70C51.1397 70 52.0352 69.1046 52.0352 68V62Z" fill="#4992FF"/>
<path d="M89.0352 91H69.0352C68.5047 91 67.996 90.7893 67.621 90.4142C67.2459 90.0391 67.0352 89.5304 67.0352 89V75C67.0352 74.4696 67.2459 73.9609 67.621 73.5858C67.996 73.2107 68.5047 73 69.0352 73H89.0352C89.5656 73 90.0743 73.2107 90.4493 73.5858C90.8244 73.9609 91.0352 74.4696 91.0352 75V89C91.0352 89.5304 90.8244 90.0391 90.4493 90.4142C90.0743 90.7893 89.5656 91 89.0352 91ZM71.0352 87H87.0352V77H71.0352V87Z" fill="#4992FF"/>
<path d="M79.0352 96C78.5047 96 77.996 95.7893 77.621 95.4142C77.2459 95.0391 77.0352 94.5304 77.0352 94V89C77.0352 88.4696 77.2459 87.9609 77.621 87.5858C77.996 87.2107 78.5047 87 79.0352 87C79.5656 87 80.0743 87.2107 80.4493 87.5858C80.8244 87.9609 81.0352 88.4696 81.0352 89V94C81.0352 94.5304 80.8244 95.0391 80.4493 95.4142C80.0743 95.7893 79.5656 96 79.0352 96Z" fill="#4992FF"/>
<path d="M82.1755 96H75.8955C75.3651 96 74.8564 95.7893 74.4813 95.4142C74.1063 95.0391 73.8955 94.5304 73.8955 94C73.8955 93.4696 74.1063 92.9609 74.4813 92.5858C74.8564 92.2107 75.3651 92 75.8955 92H82.1755C82.706 92 83.2146 92.2107 83.5897 92.5858C83.9648 92.9609 84.1755 93.4696 84.1755 94C84.1755 94.5304 83.9648 95.0391 83.5897 95.4142C83.2146 95.7893 82.706 96 82.1755 96Z" fill="#4992FF"/>
<path d="M81.0352 62C81.0352 60.8954 80.1397 60 79.0352 60C77.9306 60 77.0352 60.8954 77.0352 62V68C77.0352 69.1046 77.9306 70 79.0352 70C80.1397 70 81.0352 69.1046 81.0352 68V62Z" fill="#4992FF"/>
<path d="M75.0349 64H74.6249H22.4449H22.0349C17.0283 63.9888 12.2066 62.1076 8.51511 58.7255C4.82367 55.3433 2.52886 50.7041 2.08066 45.7176C1.63247 40.7312 3.06323 35.7571 6.09238 31.7709C9.12154 27.7847 13.5306 25.0739 18.4549 24.17C20.1448 19.0607 23.2714 14.5466 27.4602 11.1681C31.6491 7.78965 36.7229 5.68988 42.0742 5.12014C47.4255 4.55041 52.8276 5.53484 57.6339 7.95565C62.4402 10.3765 66.4471 14.1311 69.1749 18.77C72.3388 17.9301 75.6454 17.7753 78.8739 18.3158C82.1024 18.8563 85.1784 20.0797 87.8962 21.9043C90.6139 23.7288 92.9109 26.1125 94.6336 28.896C96.3563 31.6795 97.4649 34.7986 97.8855 38.0449C98.3061 41.2912 98.029 44.5899 97.0725 47.7205C96.116 50.851 94.5023 53.7414 92.3393 56.1983C90.1762 58.6552 87.5136 60.6221 84.5295 61.9676C81.5453 63.313 78.3083 64.0059 75.0349 64V64ZM74.5549 60H75.0349C77.7993 60.0071 80.532 59.4109 83.0422 58.2529C85.5524 57.0949 87.7797 55.4032 89.5686 53.2956C91.3576 51.1881 92.6651 48.7155 93.3999 46.0506C94.1348 43.3856 94.2792 40.5924 93.8232 37.8658C93.3671 35.1393 92.3216 32.5451 90.7596 30.2642C89.1976 27.9834 87.1567 26.0709 84.7793 24.6602C82.4019 23.2495 79.7453 22.3746 76.9949 22.0965C74.2445 21.8184 71.4666 22.1438 68.8549 23.05C68.3961 23.2076 67.8956 23.1931 67.4468 23.0091C66.9979 22.8252 66.6311 22.4843 66.4149 22.05C64.2205 17.7475 60.779 14.2072 56.5404 11.8919C52.3017 9.57657 47.4632 8.59396 42.6571 9.07251C37.8511 9.55106 33.3013 11.4685 29.6025 14.5742C25.9036 17.6799 23.2278 21.8293 21.9249 26.48C21.8174 26.8649 21.5969 27.2087 21.2922 27.4672C20.9874 27.7256 20.6122 27.8868 20.2149 27.93C16.1092 28.365 12.3281 30.3627 9.65488 33.5091C6.98164 36.6555 5.62109 40.7095 5.85502 44.8316C6.08895 48.9537 7.89942 52.8278 10.9115 55.6515C13.9235 58.4753 17.9063 60.0323 22.0349 60H74.5549Z" fill="#4992FF"/>
</svg>
