<?xml version="1.0" encoding="utf-8"?>
<!-- Generator: Adobe Illustrator 25.4.1, SVG Export Plug-In . SVG Version: 6.00 Build 0)  -->
<svg version="1.1" id="Layer_1" xmlns="http://www.w3.org/2000/svg" xmlns:xlink="http://www.w3.org/1999/xlink" x="0px" y="0px"
	 viewBox="0 0 130 130" style="enable-background:new 0 0 130 130;" xml:space="preserve">
<style type="text/css">
	.st0{fill:#AB98DF;}
	.st1{fill:#FFFFFF;}
	.st2{opacity:0;}
</style>
<path class="st0" d="M64.6,99.5h-2c-0.5,0-1,0.2-1.4,0.6s-0.6,0.9-0.6,1.4s0.2,1,0.6,1.4s0.9,0.6,1.4,0.6v11c0,0.5,0.2,1,0.6,1.4
	s0.9,0.6,1.4,0.6s1-0.2,1.4-0.6c0.4-0.4,0.6-0.9,0.6-1.4v-13c0-0.5-0.2-1-0.6-1.4C65.6,99.7,65.1,99.5,64.6,99.5z"/>
<path class="st0" d="M55.6,99.5h-2c-0.5,0-1,0.2-1.4,0.6s-0.6,0.9-0.6,1.4s0.2,1,0.6,1.4s0.9,0.6,1.4,0.6v11c0,0.5,0.2,1,0.6,1.4
	s0.9,0.6,1.4,0.6s1-0.2,1.4-0.6c0.4-0.4,0.6-0.9,0.6-1.4v-13c0-0.5-0.2-1-0.6-1.4C56.6,99.7,56.1,99.5,55.6,99.5z"/>
<path class="st0" d="M42.1,99.5c-1.7,0-3.4,0.7-4.6,1.9c-1.2,1.2-1.9,2.9-1.9,4.6v4c0,1.7,0.7,3.4,1.9,4.6c1.2,1.2,2.9,1.9,4.6,1.9
	c1.7,0,3.4-0.7,4.6-1.9c1.2-1.2,1.9-2.9,1.9-4.6v-4c0-1.7-0.7-3.4-1.9-4.6C45.5,100.2,43.8,99.5,42.1,99.5z M44.6,110
	c0,0.7-0.3,1.3-0.7,1.8c-0.5,0.5-1.1,0.7-1.8,0.7c-0.7,0-1.3-0.3-1.8-0.7c-0.5-0.4-0.7-1.1-0.7-1.8v-4c0-0.7,0.3-1.3,0.7-1.8
	c0.5-0.5,1.1-0.7,1.8-0.7c0.7,0,1.3,0.3,1.8,0.7c0.5,0.5,0.7,1.1,0.7,1.8V110z"/>
<path class="st0" d="M77.1,99.5c-1.7,0-3.4,0.7-4.6,1.9c-1.2,1.2-1.9,2.9-1.9,4.6v4c0,1.7,0.7,3.4,1.9,4.6c1.2,1.2,2.9,1.9,4.6,1.9
	c1.7,0,3.4-0.7,4.6-1.9c1.2-1.2,1.9-2.9,1.9-4.6v-4c0-1.7-0.7-3.4-1.9-4.6C80.5,100.2,78.8,99.5,77.1,99.5z M79.6,110
	c0,0.7-0.3,1.3-0.7,1.8c-0.5,0.5-1.1,0.7-1.8,0.7c-0.7,0-1.3-0.3-1.8-0.7c-0.5-0.5-0.7-1.1-0.7-1.8v-4c0-0.7,0.3-1.3,0.7-1.8
	c0.5-0.5,1.1-0.7,1.8-0.7c0.7,0,1.3,0.3,1.8,0.7c0.5,0.5,0.7,1.1,0.7,1.8V110z"/>
<path class="st0" d="M55.6,78.5h-2c-0.5,0-1,0.2-1.4,0.6s-0.6,0.9-0.6,1.4s0.2,1,0.6,1.4s0.9,0.6,1.4,0.6v11c0,0.5,0.2,1,0.6,1.4
	s0.9,0.6,1.4,0.6s1-0.2,1.4-0.6c0.4-0.4,0.6-0.9,0.6-1.4v-13c0-0.5-0.2-1-0.6-1.4C56.6,78.7,56.1,78.5,55.6,78.5z"/>
<path class="st0" d="M42.1,78.5c-1.7,0-3.4,0.7-4.6,1.9c-1.2,1.2-1.9,2.9-1.9,4.6v4c0,1.7,0.7,3.4,1.9,4.6c1.2,1.2,2.9,1.9,4.6,1.9
	c1.7,0,3.4-0.7,4.6-1.9c1.2-1.2,1.9-2.9,1.9-4.6v-4c0-1.7-0.7-3.4-1.9-4.6C45.5,79.2,43.8,78.5,42.1,78.5z M44.6,89
	c0,0.7-0.3,1.3-0.7,1.8c-0.5,0.5-1.1,0.7-1.8,0.7c-0.7,0-1.3-0.3-1.8-0.7c-0.5-0.5-0.7-1.1-0.7-1.8v-4c0-0.7,0.3-1.3,0.7-1.8
	c0.4-0.5,1.1-0.7,1.8-0.7c0.7,0,1.3,0.3,1.8,0.7c0.5,0.5,0.7,1.1,0.7,1.8V89z"/>
<path class="st0" d="M67.1,78.5c-1.7,0-3.4,0.7-4.6,1.9c-1.2,1.2-1.9,2.9-1.9,4.6v4c0,1.7,0.7,3.4,1.9,4.6c1.2,1.2,2.9,1.9,4.6,1.9
	c1.7,0,3.4-0.7,4.6-1.9c1.2-1.2,1.9-2.9,1.9-4.6v-4c0-1.7-0.7-3.4-1.9-4.6C70.5,79.2,68.8,78.5,67.1,78.5z M69.6,89
	c0,0.7-0.3,1.3-0.7,1.8c-0.5,0.5-1.1,0.7-1.8,0.7c-0.7,0-1.3-0.3-1.8-0.7c-0.5-0.5-0.7-1.1-0.7-1.8v-4c0-0.7,0.3-1.3,0.7-1.8
	c0.5-0.5,1.1-0.7,1.8-0.7c0.7,0,1.3,0.3,1.8,0.7c0.5,0.5,0.7,1.1,0.7,1.8V89z"/>
<path class="st0" d="M85.1,78.5c-1.7,0-3.4,0.7-4.6,1.9c-1.2,1.2-1.9,2.9-1.9,4.6v4c0,1.7,0.7,3.4,1.9,4.6c1.2,1.2,2.9,1.9,4.6,1.9
	c1.7,0,3.4-0.7,4.6-1.9c1.2-1.2,1.9-2.9,1.9-4.6v-4c0-1.7-0.7-3.4-1.9-4.6C88.5,79.2,86.8,78.5,85.1,78.5z M87.6,89
	c0,0.7-0.3,1.3-0.7,1.8c-0.5,0.5-1.1,0.7-1.8,0.7c-0.7,0-1.3-0.3-1.8-0.7c-0.5-0.5-0.7-1.1-0.7-1.8v-4c0-0.7,0.3-1.3,0.7-1.8
	c0.5-0.5,1.1-0.7,1.8-0.7c0.7,0,1.3,0.3,1.8,0.7c0.5,0.5,0.7,1.1,0.7,1.8V89z"/>
<path class="st0" d="M39.6,56.5h-2c-0.5,0-1,0.2-1.4,0.6c-0.4,0.4-0.6,0.9-0.6,1.4s0.2,1,0.6,1.4c0.4,0.4,0.9,0.6,1.4,0.6v11
	c0,0.5,0.2,1,0.6,1.4s0.9,0.6,1.4,0.6s1-0.2,1.4-0.6c0.4-0.4,0.6-0.9,0.6-1.4v-13c0-0.5-0.2-1-0.6-1.4
	C40.6,56.7,40.1,56.5,39.6,56.5z"/>
<path class="st0" d="M64.6,56.5h-2c-0.5,0-1,0.2-1.4,0.6c-0.4,0.4-0.6,0.9-0.6,1.4s0.2,1,0.6,1.4c0.4,0.4,0.9,0.6,1.4,0.6v11
	c0,0.5,0.2,1,0.6,1.4s0.9,0.6,1.4,0.6s1-0.2,1.4-0.6c0.4-0.4,0.6-0.9,0.6-1.4v-13c0-0.5-0.2-1-0.6-1.4
	C65.6,56.7,65.1,56.5,64.6,56.5z"/>
<path class="st0" d="M51.1,56.5c-1.7,0-3.4,0.7-4.6,1.9c-1.2,1.2-1.9,2.9-1.9,4.6v4c0,1.7,0.7,3.4,1.9,4.6c1.2,1.2,2.9,1.9,4.6,1.9
	c1.7,0,3.4-0.7,4.6-1.9c1.2-1.2,1.9-2.9,1.9-4.6v-4c0-1.7-0.7-3.4-1.9-4.6C54.5,57.2,52.8,56.5,51.1,56.5z M53.6,67
	c0,0.7-0.3,1.3-0.7,1.8c-0.5,0.5-1.1,0.7-1.8,0.7c-0.7,0-1.3-0.3-1.8-0.7c-0.5-0.5-0.7-1.1-0.7-1.8v-4c0-0.7,0.3-1.3,0.7-1.8
	c0.4-0.5,1.1-0.7,1.8-0.7c0.7,0,1.3,0.3,1.8,0.7c0.5,0.5,0.7,1.1,0.7,1.8V67z"/>
<path class="st0" d="M76.1,56.5c-1.7,0-3.4,0.7-4.6,1.9c-1.2,1.2-1.9,2.9-1.9,4.6v4c0,1.7,0.7,3.4,1.9,4.6c1.2,1.2,2.9,1.9,4.6,1.9
	c1.7,0,3.4-0.7,4.6-1.9c1.2-1.2,1.9-2.9,1.9-4.6v-4c0-1.7-0.7-3.4-1.9-4.6C79.5,57.2,77.8,56.5,76.1,56.5z M78.6,67
	c0,0.7-0.3,1.3-0.7,1.8c-0.5,0.5-1.1,0.7-1.8,0.7c-0.7,0-1.3-0.3-1.8-0.7c-0.5-0.5-0.7-1.1-0.7-1.8v-4c0-0.7,0.3-1.3,0.7-1.8
	c0.5-0.5,1.1-0.7,1.8-0.7c0.7,0,1.3,0.3,1.8,0.7c0.5,0.5,0.7,1.1,0.7,1.8V67z"/>
<path class="st0" d="M89.6,99.5h-2c-0.5,0-1,0.2-1.4,0.6s-0.6,0.9-0.6,1.4s0.2,1,0.6,1.4s0.9,0.6,1.4,0.6v11c0,0.5,0.2,1,0.6,1.4
	s0.9,0.6,1.4,0.6s1-0.2,1.4-0.6c0.4-0.4,0.6-0.9,0.6-1.4v-13c0-0.5-0.2-1-0.6-1.4C90.6,99.7,90.1,99.5,89.6,99.5z"/>
<path class="st0" d="M89.6,56.5h-2c-0.3,0-0.5,0.1-0.8,0.2c-0.2,0.1-0.5,0.2-0.6,0.4c-0.2,0.2-0.3,0.4-0.4,0.6s-0.2,0.5-0.2,0.8
	s0.1,0.5,0.2,0.8c0.1,0.2,0.2,0.5,0.4,0.6c0.2,0.2,0.4,0.3,0.6,0.4c0.2,0.1,0.5,0.2,0.8,0.2v11c0,0.5,0.2,1,0.6,1.4s0.9,0.6,1.4,0.6
	s1-0.2,1.4-0.6c0.4-0.4,0.6-0.9,0.6-1.4v-13c0-0.5-0.2-1-0.6-1.4C90.6,56.7,90.1,56.5,89.6,56.5z"/>
<path class="st1" d="M28.1,95.5c-6.1,0-12-2.3-16.5-6.5C7.1,84.8,4.4,79.1,4,73s1.5-12.1,5.4-16.9c3.6-4.4,8.5-7.3,14-8.4
	c1.4-6.5,4.6-12.5,9.4-17.2c5.1-5.1,11.5-8.4,18.6-9.6c7.1-1.2,14.3-0.2,20.8,2.9c6,2.9,11,7.3,14.4,12.9c3.6-1.1,7.5-1.4,11.3-1.1
	c4.3,0.4,8.6,1.8,12.3,4c3.7,2.2,7,5.3,9.5,8.8c2.5,3.6,4.2,7.7,4.9,12c0.7,4.3,0.5,8.8-0.6,13c-1.2,4.2-3.2,8.2-6.1,11.5
	c-2.8,3.3-6.4,6-10.3,7.8c-2.7,1.3-5.6,2.1-8.6,2.5c-1.1,0.1-2.1-0.6-2.2-1.7s0.6-2.1,1.7-2.2c2.6-0.3,5.1-1.1,7.4-2.2
	c3.4-1.6,6.5-3.9,9-6.8c2.4-2.9,4.3-6.3,5.2-9.9c1-3.6,1.2-7.5,0.6-11.2c-0.6-3.7-2.1-7.3-4.2-10.4s-5-5.7-8.2-7.7
	c-3.2-1.9-7-3.1-10.7-3.5c-3.8-0.4-7.6,0.1-11.2,1.4c-0.9,0.3-1.9-0.1-2.4-0.9c-3.1-5.6-7.8-9.9-13.5-12.7
	c-5.7-2.7-12.1-3.6-18.4-2.6c-6.3,1.1-12,4-16.5,8.5s-7.4,10.1-8.5,16.3c-0.1,0.9-0.8,1.7-1.7,1.8c-5.1,0.7-9.7,3.3-12.9,7.2
	c-3.2,4-4.8,9-4.5,14.1c0.3,5.1,2.6,9.9,6.4,13.4c3.7,3.5,8.6,5.4,13.8,5.4c1.1,0,2,0.9,2,2S29.3,95.5,28.1,95.5
	C28.1,95.5,28.2,95.5,28.1,95.5z"/>
<rect y="0.5" class="st2" width="130" height="130"/>
</svg>
