<?xml version="1.0" encoding="utf-8"?>
<!-- Generator: Adobe Illustrator 25.4.1, SVG Export Plug-In . SVG Version: 6.00 Build 0)  -->
<svg version="1.1" id="Layer_1" xmlns="http://www.w3.org/2000/svg" xmlns:xlink="http://www.w3.org/1999/xlink" x="0px" y="0px"
	 viewBox="0 0 130 130" style="enable-background:new 0 0 130 130;" xml:space="preserve">
<style type="text/css">
	.st0{fill:#4992FF;}
	.st1{fill:#FFFFFF;}
	.st2{opacity:0;}
</style>
<path class="st0" d="M120.8,43.2L113,59.4c-0.2,0.5-0.6,0.8-1.1,1c-0.5,0.2-1,0.1-1.5-0.1c-0.5-0.2-0.8-0.6-1-1.1
	c-0.2-0.5-0.1-1,0.1-1.5l7.8-16.2c0.2-0.5,0.6-0.8,1.1-1c0.5-0.2,1-0.1,1.5,0.1c0.5,0.2,0.8,0.6,1,1.1
	C121.1,42.2,121.1,42.7,120.8,43.2z"/>
<path class="st0" d="M67,47c0-1.1-0.9-2-2-2s-2,0.9-2,2v18c0,1.1,0.9,2,2,2s2-0.9,2-2V47z"/>
<path class="st0" d="M39,67c-1.1,0-2,0.9-2,2s0.9,2,2,2h22c1.1,0,2-0.9,2-2s-0.9-2-2-2H39z"/>
<path class="st0" d="M65,75c-1.2,0-2.3-0.4-3.3-1c-1-0.7-1.8-1.6-2.2-2.7c-0.5-1.1-0.6-2.3-0.3-3.5c0.2-1.2,0.8-2.2,1.6-3.1
	c0.8-0.8,1.9-1.4,3.1-1.6c1.2-0.2,2.4-0.1,3.5,0.3c1.1,0.5,2,1.2,2.7,2.2c0.7,1,1,2.1,1,3.3c0,1.6-0.6,3.1-1.8,4.2
	C68.1,74.4,66.6,75,65,75L65,75z M65,67c-0.4,0-0.8,0.1-1.1,0.3c-0.3,0.2-0.6,0.5-0.7,0.9C63,68.6,63,69,63,69.4
	c0.1,0.4,0.3,0.7,0.5,1s0.6,0.5,1,0.5c0.4,0.1,0.8,0,1.2-0.1c0.4-0.2,0.7-0.4,0.9-0.7c0.2-0.3,0.3-0.7,0.3-1.1c0-0.5-0.2-1-0.6-1.4
	C66,67.2,65.5,67,65,67z"/>
<path class="st0" d="M110.3,60.3l-16.2-7.9c-0.5-0.2-0.8-0.6-1-1.1c-0.2-0.5-0.1-1,0.1-1.5c0.2-0.5,0.6-0.8,1.1-1
	c0.5-0.2,1-0.1,1.5,0.1l16.2,7.9c0.5,0.2,0.8,0.6,1,1.1c0.2,0.5,0.1,1-0.1,1.5l0,0c-0.2,0.5-0.6,0.8-1.1,1
	C111.3,60.6,110.8,60.5,110.3,60.3z"/>
<path class="st0" d="M112.9,79.1c0-0.5-0.1-1-0.4-1.4c-0.3-0.4-0.8-0.7-1.2-0.7c-0.5-0.1-1,0-1.4,0.3c-0.4,0.3-0.7,0.7-0.8,1.2
	c0,0,0,0.1,0,0.2l0,0c-1.4,6.5-4.2,12.6-8.3,17.8c-4,5.3-9.2,9.6-15.1,12.6c-5.9,3-12.4,4.7-19,5c-6.6,0.2-13.2-1-19.3-3.6
	c-6.1-2.6-11.5-6.5-15.9-11.5c-4.4-5-7.6-10.8-9.5-17.2C20,75.3,19.6,68.6,20.6,62c1-6.6,3.5-12.8,7.2-18.3
	c-0.6-0.4-1.2-0.8-1.7-1.3c-0.5-0.5-0.9-1-1.2-1.6c-4.2,5.9-6.9,12.7-8.2,19.9c-1.2,7.2-0.8,14.5,1.1,21.5c2,7,5.5,13.4,10.2,18.9
	c4.8,5.5,10.7,9.8,17.3,12.7c6.7,2.9,13.9,4.3,21.1,4.1c7.3-0.2,14.4-2.1,20.8-5.4c6.5-3.3,12.1-8,16.5-13.8
	c4.4-5.8,7.5-12.4,9-19.5L112.9,79.1L112.9,79.1z"/>
<path class="st0" d="M56,22c0-0.4,0-0.8,0.1-1.2c-6.7,1.2-13.1,3.9-18.7,7.7c0.5,0.3,1,0.7,1.4,1.2c0.5,0.5,1,1.1,1.4,1.8
	c4.9-3.3,10.5-5.5,16.3-6.6C56.2,23.9,56,23,56,22L56,22z"/>
<path class="st0" d="M75.3,21.1c-0.4-0.1-0.9-0.2-1.3-0.3c0.2,1.3,0.1,2.7-0.4,4c8.4,1.6,16.2,5.6,22.4,11.5
	c6.2,5.9,10.6,13.4,12.7,21.7h4.1c-2.1-9.1-6.7-17.4-13.4-23.9C92.7,27.5,84.4,23,75.3,21.1L75.3,21.1z"/>
<path class="st1" d="M32.5,47c-2.5,0-5-0.9-7-2.5c-2-1.6-3.3-3.9-3.8-6.4c-0.5-2.5-0.1-5.1,1.1-7.3s3.1-4,5.5-5c2.4-1,5-1.1,7.4-0.4
	c2.4,0.7,4.5,2.3,5.9,4.4c1.4,2.1,2,4.7,1.8,7.2c-0.3,2.5-1.4,4.9-3.2,6.7C38.2,45.9,35.4,47.1,32.5,47L32.5,47z M32.5,29
	c-1.6,0-3.2,0.6-4.4,1.6c-1.2,1-2.1,2.5-2.4,4.1c-0.3,1.6-0.1,3.2,0.7,4.7c0.8,1.4,2,2.5,3.5,3.1c1.5,0.6,3.2,0.7,4.7,0.2
	c1.5-0.5,2.9-1.5,3.8-2.8c0.9-1.3,1.3-3,1.1-4.6c-0.2-1.6-0.9-3.1-2-4.3c-0.7-0.7-1.4-1.2-2.3-1.5C34.3,29.2,33.4,29.1,32.5,29
	L32.5,29z"/>
<path class="st1" d="M65,34c-2.2,0-4.3-0.6-6.1-1.9c-1.8-1.2-3.2-2.9-4.1-4.9s-1.1-4.2-0.6-6.4c0.4-2.1,1.5-4.1,3-5.6
	c1.5-1.5,3.5-2.6,5.6-3c2.1-0.4,4.3-0.2,6.4,0.6c2,0.8,3.7,2.2,4.9,4.1c1.2,1.8,1.9,3.9,1.9,6.1c0,2.9-1.2,5.7-3.2,7.8
	C70.7,32.8,67.9,34,65,34z M65,16c-1.4,0-2.7,0.4-3.9,1.2c-1.2,0.8-2,1.9-2.6,3.1c-0.5,1.3-0.7,2.7-0.4,4c0.3,1.4,0.9,2.6,1.9,3.6
	c1,1,2.2,1.6,3.6,1.9c1.4,0.3,2.8,0.1,4-0.4c1.3-0.5,2.4-1.4,3.1-2.6c0.8-1.2,1.2-2.5,1.2-3.9c0-1.9-0.7-3.6-2.1-4.9
	C68.6,16.7,66.9,16,65,16L65,16z"/>
<rect class="st2" width="130" height="130"/>
</svg>
