<?xml version="1.0" encoding="utf-8"?>
<!-- Generator: Adobe Illustrator 25.4.1, SVG Export Plug-In . SVG Version: 6.00 Build 0)  -->
<svg version="1.1" id="Layer_1" xmlns="http://www.w3.org/2000/svg" xmlns:xlink="http://www.w3.org/1999/xlink" x="0px" y="0px"
	 viewBox="0 0 130 130" style="enable-background:new 0 0 130 130;" xml:space="preserve">
<style type="text/css">
	.st0{fill:#4992FF;}
	.st1{fill:#FFFFFF;}
	.st2{opacity:0;}
</style>
<path class="st0" d="M93.2,105.5c-0.5,0-1-0.2-1.4-0.6s-0.6-0.9-0.6-1.4V103c0-0.5,0.2-1,0.6-1.4s0.9-0.6,1.4-0.6
	c0.5,0,1,0.2,1.4,0.6c0.4,0.4,0.6,0.9,0.6,1.4v0.5c0,0.5-0.2,1-0.6,1.4C94.2,105.3,93.7,105.5,93.2,105.5z"/>
<path class="st0" d="M81.2,125c-0.5,0-1-0.2-1.4-0.6c-0.4-0.4-0.6-0.9-0.6-1.4c0-0.5,0.2-1,0.6-1.4c0.4-0.4,0.9-0.6,1.4-0.6l0.9-0.1
	c0.5,0,1.1,0.1,1.5,0.5c0.4,0.3,0.7,0.8,0.7,1.4c0,0.5-0.1,1.1-0.5,1.5c-0.3,0.4-0.8,0.7-1.4,0.7C82,124.9,81.6,124.9,81.2,125
	L81.2,125z M73.4,123.7c-0.3,0-0.6-0.1-0.9-0.2c-0.4-0.2-0.7-0.4-1-0.6c-0.2-0.1-0.4-0.3-0.6-0.5c-0.2-0.2-0.3-0.5-0.3-0.7
	c-0.1-0.3-0.1-0.5,0-0.8c0-0.3,0.1-0.5,0.3-0.7c0.1-0.2,0.3-0.4,0.5-0.6s0.5-0.3,0.7-0.3c0.3-0.1,0.5-0.1,0.8,0
	c0.3,0,0.5,0.1,0.7,0.3c0.2,0.1,0.5,0.3,0.7,0.4c0.4,0.2,0.7,0.5,0.9,0.9c0.2,0.4,0.2,0.9,0.1,1.3c-0.1,0.4-0.3,0.8-0.7,1.1
	S73.9,123.7,73.4,123.7L73.4,123.7z M89.6,122.4c-0.4,0-0.8-0.1-1.1-0.4c-0.3-0.2-0.6-0.6-0.7-1c-0.1-0.4-0.2-0.8,0-1.2
	c0.1-0.4,0.3-0.7,0.6-1c0.2-0.2,0.4-0.3,0.5-0.5c0.2-0.2,0.4-0.3,0.6-0.5c0.2-0.1,0.5-0.2,0.8-0.2c0.3,0,0.5,0,0.8,0.1
	c0.2,0.1,0.5,0.2,0.7,0.4c0.2,0.2,0.3,0.4,0.5,0.6c0.1,0.2,0.2,0.5,0.2,0.8c0,0.3,0,0.5-0.1,0.8c-0.1,0.2-0.2,0.5-0.4,0.7
	c-0.3,0.3-0.6,0.6-0.9,0.8C90.5,122.3,90,122.4,89.6,122.4L89.6,122.4z M67.7,117.2c-0.4,0-0.8-0.1-1.1-0.3
	c-0.3-0.2-0.6-0.5-0.7-0.9c-0.1-0.3-0.3-0.7-0.4-1c-0.2-0.5-0.1-1,0.1-1.5c0.2-0.5,0.6-0.8,1.1-1c0.5-0.2,1-0.2,1.5,0.1
	c0.5,0.2,0.8,0.6,1,1.1c0.1,0.3,0.2,0.6,0.3,0.8c0.2,0.5,0.2,1,0,1.5c-0.2,0.5-0.6,0.9-1.1,1.1C68.2,117.1,68,117.2,67.7,117.2
	L67.7,117.2z M93,114.4h-0.2c-0.5-0.1-1-0.3-1.4-0.7c-0.3-0.4-0.5-0.9-0.4-1.5c0-0.3,0.1-0.6,0.1-0.9c0-0.5,0.3-1,0.7-1.4
	c0.2-0.2,0.4-0.3,0.7-0.4c0.2-0.1,0.5-0.1,0.8-0.1c0.3,0,0.5,0.1,0.8,0.2s0.4,0.3,0.6,0.5c0.2,0.2,0.3,0.4,0.4,0.7
	c0.1,0.2,0.1,0.5,0.1,0.8c0,0.4,0,0.7-0.1,1c0,0.5-0.3,1-0.7,1.3C93.9,114.3,93.4,114.4,93,114.4L93,114.4z M65.6,108.5
	c-0.5,0-1-0.2-1.3-0.5c-0.4-0.3-0.6-0.8-0.7-1.3c0-0.3-0.1-0.7-0.1-1c0-0.3,0-0.5,0.1-0.8c0.1-0.3,0.2-0.5,0.4-0.7
	c0.2-0.2,0.4-0.4,0.6-0.5c0.2-0.1,0.5-0.2,0.7-0.2c0.3,0,0.5,0,0.8,0.1c0.3,0.1,0.5,0.2,0.7,0.4c0.2,0.2,0.4,0.4,0.5,0.6
	c0.1,0.2,0.2,0.5,0.2,0.8c0,0.3,0.1,0.6,0.1,1c0,0.3,0,0.5-0.1,0.8s-0.2,0.5-0.4,0.7s-0.4,0.4-0.6,0.5c-0.2,0.1-0.5,0.2-0.7,0.2
	L65.6,108.5z"/>
<path class="st0" d="M65.2,99.5c-0.5,0-1-0.2-1.4-0.6c-0.4-0.4-0.6-0.9-0.6-1.4V97c0-0.5,0.2-1,0.6-1.4s0.9-0.6,1.4-0.6
	c0.5,0,1,0.2,1.4,0.6c0.4,0.4,0.6,0.9,0.6,1.4v0.5c0,0.5-0.2,1-0.6,1.4C66.2,99.3,65.7,99.5,65.2,99.5L65.2,99.5z"/>
<path class="st0" d="M98.7,111.3c0.8,0.8,2,0.8,2.8,0s0.8-2,0-2.8l-7.1-7.1c-0.8-0.8-2-0.8-2.8,0c-0.8,0.8-0.8,2,0,2.8L98.7,111.3z"
	/>
<path class="st0" d="M94.5,104.2c0.8-0.8,0.8-2,0-2.8c-0.8-0.8-2-0.8-2.8,0l-7.1,7.1c-0.8,0.8-0.8,2,0,2.8c0.8,0.8,2,0.8,2.8,0
	L94.5,104.2z"/>
<path class="st0" d="M36,29.5c-0.5,0-1-0.2-1.4-0.6C34.2,28.5,34,28,34,27.5v-0.5c0-0.5,0.2-1,0.6-1.4c0.4-0.4,0.9-0.6,1.4-0.6
	s1,0.2,1.4,0.6c0.4,0.4,0.6,0.9,0.6,1.4v0.5c0,0.3,0,0.5-0.1,0.8c-0.1,0.2-0.2,0.5-0.4,0.7c-0.2,0.2-0.4,0.3-0.7,0.4
	C36.5,29.4,36.3,29.5,36,29.5z"/>
<path class="st0" d="M64.4,25.9c-0.5,0-0.9-0.2-1.3-0.5c-0.4-0.3-0.6-0.7-0.7-1.2l-0.2-1c-0.1-0.3-0.1-0.5,0-0.8
	c0.1-0.3,0.2-0.5,0.3-0.7s0.3-0.4,0.6-0.6c0.2-0.1,0.5-0.2,0.7-0.3c0.3,0,0.5,0,0.8,0c0.3,0.1,0.5,0.2,0.7,0.3
	c0.2,0.2,0.4,0.3,0.5,0.6c0.1,0.2,0.2,0.5,0.3,0.7c0.1,0.4,0.1,0.7,0.2,1.1c0.1,0.5,0,1.1-0.4,1.5c-0.3,0.4-0.8,0.7-1.3,0.8
	L64.4,25.9z M37.5,20.5c-0.2,0-0.5,0-0.7-0.1c-0.2-0.1-0.5-0.2-0.7-0.4c-0.2-0.2-0.4-0.4-0.5-0.6c-0.1-0.2-0.2-0.5-0.2-0.8
	c0-0.3,0-0.5,0.1-0.8c0.1-0.4,0.3-0.7,0.4-1.1c0.1-0.2,0.3-0.5,0.4-0.7c0.2-0.2,0.4-0.3,0.7-0.4c0.2-0.1,0.5-0.1,0.8-0.1
	c0.3,0,0.5,0.1,0.8,0.2s0.5,0.3,0.6,0.4c0.2,0.2,0.3,0.4,0.4,0.7c0.1,0.2,0.1,0.5,0.1,0.8c0,0.3-0.1,0.5-0.2,0.8l-0.4,0.9
	c-0.1,0.4-0.4,0.7-0.7,0.9C38.3,20.4,37.9,20.5,37.5,20.5z M61.3,16.8c-0.3,0-0.7-0.1-1-0.2c-0.3-0.2-0.5-0.4-0.7-0.7
	c-0.2-0.3-0.4-0.5-0.5-0.8c-0.2-0.2-0.3-0.5-0.3-0.7c-0.1-0.3-0.1-0.5,0-0.8c0-0.3,0.1-0.5,0.3-0.7c0.1-0.2,0.3-0.4,0.5-0.6
	c0.2-0.2,0.5-0.3,0.7-0.3c0.3-0.1,0.5-0.1,0.8,0c0.3,0,0.5,0.1,0.7,0.3c0.2,0.1,0.4,0.3,0.6,0.5c0.2,0.3,0.5,0.7,0.7,1
	c0.1,0.2,0.2,0.5,0.3,0.7c0,0.3,0,0.5,0,0.8c-0.1,0.3-0.2,0.5-0.3,0.7c-0.2,0.2-0.3,0.4-0.6,0.5C62,16.7,61.7,16.8,61.3,16.8
	L61.3,16.8z M43.2,13c-0.4,0-0.9-0.1-1.2-0.4c-0.3-0.3-0.6-0.6-0.7-1c-0.1-0.4-0.1-0.9,0.1-1.3c0.2-0.4,0.4-0.8,0.8-1
	c0.4-0.2,0.7-0.4,1.1-0.6c0.5-0.2,1-0.2,1.5-0.1c0.5,0.2,0.9,0.5,1.1,1c0.2,0.5,0.3,1,0.1,1.5c-0.2,0.5-0.5,0.9-1,1.2
	c-0.3,0.1-0.5,0.3-0.8,0.4C44,12.9,43.6,13,43.2,13L43.2,13z M53.6,11.3c-0.1,0-0.3,0-0.4,0c-0.3-0.1-0.6-0.1-0.9-0.2
	c-0.5-0.1-1-0.3-1.3-0.8c-0.3-0.4-0.5-1-0.4-1.5s0.3-1,0.8-1.3c0.4-0.3,1-0.5,1.5-0.4c0.4,0,0.8,0.1,1.2,0.2c0.5,0.1,1,0.3,1.4,0.7
	c0.3,0.4,0.5,0.9,0.4,1.5c-0.1,0.5-0.3,1-0.7,1.4C54.7,11.2,54.2,11.4,53.6,11.3L53.6,11.3z"/>
<path class="st0" d="M65,35c-0.5,0-1-0.2-1.4-0.6C63.2,34,63,33.5,63,33v-0.5c0-0.5,0.2-1,0.6-1.4c0.4-0.4,0.9-0.6,1.4-0.6
	c0.5,0,1,0.2,1.4,0.6c0.4,0.4,0.6,0.9,0.6,1.4V33c0,0.5-0.2,1-0.6,1.4S65.5,35,65,35z"/>
<path class="st0" d="M59.4,24.7c-0.8-0.8-2-0.8-2.8,0c-0.8,0.8-0.8,2,0,2.8l7.1,7.1c0.8,0.8,2,0.8,2.8,0c0.8-0.8,0.8-2,0-2.8
	L59.4,24.7z"/>
<path class="st0" d="M63.6,31.7c-0.8,0.8-0.8,2,0,2.8c0.8,0.8,2,0.8,2.8,0l7.1-7.1c0.8-0.8,0.8-2,0-2.8c-0.8-0.8-2-0.8-2.8,0
	L63.6,31.7z"/>
<path class="st0" d="M40,76H9c-1.6,0-3.1-0.6-4.2-1.8S3,71.6,3,70V39c0-1.6,0.6-3.1,1.8-4.2C5.9,33.6,7.4,33,9,33h31
	c1.6,0,3.1,0.6,4.2,1.8c1.1,1.1,1.8,2.7,1.8,4.2v31c0,1.6-0.6,3.1-1.8,4.2C43.1,75.4,41.6,76,40,76L40,76z M9,37
	c-0.5,0-1,0.2-1.4,0.6S7,38.5,7,39v31c0,0.5,0.2,1,0.6,1.4C8,71.8,8.5,72,9,72h31c0.5,0,1-0.2,1.4-0.6C41.8,71,42,70.5,42,70V39
	c0-0.5-0.2-1-0.6-1.4S40.5,37,40,37H9z"/>
<path class="st0" d="M30.5,57.7c0.4,0,0.8,0.1,1.2,0.3c0.4,0.2,0.7,0.5,0.9,0.8c0.2,0.4,0.4,0.8,0.4,1.2c0,0.4-0.1,0.8-0.2,1.2
	c-0.1,0.2-0.2,0.5-0.4,0.7c-0.8,1.2-1.9,2.2-3.3,2.8c-1.5,0.7-3.2,1-4.8,1c-1.3,0.1-2.6-0.2-3.9-0.7c-1.2-0.5-2.3-1.3-3.2-2.3
	c-1.7-2-2.6-4.7-2.6-8.2v-1.1c0-2,0.3-4,1.2-5.9c0.7-1.6,1.9-2.9,3.4-3.9c1.5-0.9,3.3-1.4,5-1.4c2.4-0.1,4.8,0.7,6.7,2.2
	c0.8,0.7,1.4,1.5,1.9,2.5c0.2,0.4,0.3,0.8,0.2,1.2c0,0.4-0.2,0.8-0.4,1.2c-0.2,0.4-0.5,0.6-0.9,0.8c-0.4,0.2-0.8,0.3-1.2,0.3h-0.2
	c-0.5,0-1-0.2-1.4-0.5c-0.4-0.3-0.7-0.7-0.9-1.2c-0.1-0.5-0.4-1-0.8-1.3c-0.9-0.7-1.9-1-3-0.9c-0.6,0-1.2,0.1-1.7,0.4
	c-0.5,0.3-1,0.7-1.3,1.2c-0.7,1.5-1.1,3.2-1,4.9v1.6c-0.1,1.8,0.2,3.6,0.9,5.2c0.3,0.5,0.8,1,1.4,1.2c0.6,0.3,1.2,0.4,1.8,0.3
	c1,0.1,2.1-0.2,2.9-0.9c0.3-0.3,0.6-0.7,0.8-1.1c0.2-0.5,0.5-0.9,0.9-1.2c0.4-0.3,0.9-0.5,1.4-0.5L30.5,57.7z"/>
<path class="st0" d="M121,97H90c-1.6,0-3.1-0.6-4.2-1.8C84.6,94.1,84,92.6,84,91V60c0-1.6,0.6-3.1,1.8-4.2c1.1-1.1,2.7-1.8,4.2-1.8
	h31c1.6,0,3.1,0.6,4.2,1.8c1.1,1.1,1.8,2.7,1.8,4.2v31c0,1.6-0.6,3.1-1.8,4.2C124.1,96.4,122.6,97,121,97z M90,58
	c-0.5,0-1,0.2-1.4,0.6C88.2,59,88,59.5,88,60v31c0,0.5,0.2,1,0.6,1.4C89,92.8,89.5,93,90,93h31c0.5,0,1-0.2,1.4-0.6
	c0.4-0.4,0.6-0.9,0.6-1.4V60c0-0.5-0.2-1-0.6-1.4S121.5,58,121,58H90z"/>
<path class="st0" d="M115.5,75.4c0.1,1.9-0.3,3.8-1,5.5c-0.6,1.4-1.5,2.6-2.7,3.6c0,0,0,0-0.1,0.1c0,0,0,0.1,0,0.1c0,0,0,0.1,0,0.1
	s0,0.1,0.1,0.1l1.4,1.1c0.3,0.2,0.5,0.5,0.6,0.7c0.1,0.3,0.2,0.6,0.2,0.9c0,0.3-0.1,0.6-0.2,0.9c-0.1,0.3-0.3,0.6-0.6,0.8
	c-0.4,0.3-0.9,0.5-1.4,0.5c-0.5,0-1-0.2-1.4-0.5l-3.4-2.8c0,0-0.1-0.1-0.2-0.1c-0.4,0.1-0.9,0.1-1.3,0.1c-1.8,0-3.6-0.4-5.2-1.3
	C99,84.4,97.7,83,97,81.4c-0.9-1.8-1.3-3.8-1.3-5.8v-1.2c0-2,0.4-4.1,1.2-5.9c0.8-1.6,2-3,3.5-3.9c1.6-0.9,3.4-1.4,5.2-1.4
	c1.8,0,3.6,0.5,5.2,1.4c1.5,0.9,2.8,2.3,3.5,3.9c0.9,1.8,1.3,3.8,1.3,5.8L115.5,75.4z M109.9,74.4c0.1-1.8-0.3-3.6-1.1-5.1
	c-0.4-0.5-0.8-1-1.4-1.3c-0.6-0.3-1.2-0.5-1.8-0.5c-0.6,0-1.3,0.2-1.8,0.5c-0.6,0.3-1.1,0.7-1.4,1.3c-0.8,1.6-1.2,3.3-1.1,5.1v1
	c-0.1,1.8,0.3,3.6,1.1,5.2c0.4,0.8,1.2,1.3,2,1.6c0.9,0.3,1.8,0.3,2.6-0.1c0.8-0.3,1.6-0.9,2-1.7c0.7-1.5,1.1-3.2,1-4.9V74.4z"/>
<path class="st1" d="M88,47c0-4.3-7.2-9-23-9s-23,4.7-23,9v37c0,4.3,7.2,9,23,9s23-4.7,23-9V47z M84,59.4c0,1.5-6.5,5-19,5
	s-19-3.5-19-5v-7.1c3.7,2.1,9.9,3.7,19,3.7c9.1,0,15.3-1.5,19-3.7V59.4L84,59.4z M84,71.7c0,1.5-6.5,5-19,5s-19-3.5-19-5v-7
	c3.7,2.1,9.9,3.7,19,3.7c9.1,0,15.3-1.5,19-3.7V71.7z M65,42c12.5,0,19,3.5,19,5c0,1.5-6.5,5-19,5s-19-3.5-19-5
	C46,45.5,52.5,42,65,42z M84,84c0,1.5-6.5,5-19,5s-19-3.5-19-5v-7c3.7,2.1,9.9,3.7,19,3.7c9.1,0,15.3-1.6,19-3.7V84z"/>
<rect class="st2" width="130" height="130"/>
</svg>
