<svg xmlns="http://www.w3.org/2000/svg" width="1280" height="408" viewBox="0 0 1280 408"><path d="M0 0h1280v408H0V0z" fill="#3949AB"/><path d="M540.948 17.979c20.757 0 37.583 16.827 37.583 37.583 0 20.757-16.826 37.584-37.583 37.584-13.742-.062-24.601-6.931-32.135-18.084H0v-39h508.813c7.042-11.3 18.908-17.748 32.135-18.083zM0 228.645v-38h268.176c10.493 0 19 8.506 19 19 0 10.493-8.507 19-19 19H0z" fill="#4352AF"/><path d="M0 151.667v-38h268.176v.144c52.927 0 95.833 42.906 95.833 95.834 0 52.927-42.906 95.833-95.833 95.833v-.145H0v-38h268.176c31.94 0 57.833-25.893 57.833-57.833 0-31.94-25.893-57.833-57.833-57.833H0zm675.052 205c-20.757 0-37.583-16.827-37.583-37.584 0-20.756 16.826-37.583 37.583-37.583 13.742.062 24.601 6.931 32.135 18.083H1280v39H707.186c-7.041 11.3-18.907 17.749-32.134 18.084zm604.948-212v38h-268.176c-10.493 0-19-8.507-19-19 0-10.494 8.507-19 19-19H1280z" fill="#4352AF"/><path d="M1280 221.645v38h-268.176v-.145c-52.927 0-95.833-42.906-95.833-95.833 0-52.928 42.906-95.834 95.833-95.834v.145H1280v38h-268.176c-31.94 0-57.833 25.893-57.833 57.833 0 31.941 25.893 57.833 57.833 57.833l268.176.001z" fill="#4352AF"/></svg>