<svg width="24" height="24" viewBox="0 0 24 24" fill="none" xmlns="http://www.w3.org/2000/svg">
<path d="M13 7C10.24 7 8 9.24 8 12C8 14.76 10.24 17 13 17C15.76 17 18 14.76 18 12C18 9.24 15.76 7 13 7ZM3 13H5C5.55 13 6 12.55 6 12C6 11.45 5.55 11 5 11H3C2.45 11 2 11.45 2 12C2 12.55 2.45 13 3 13ZM21 13H23C23.55 13 24 12.55 24 12C24 11.45 23.55 11 23 11H21C20.45 11 20 11.45 20 12C20 12.55 20.45 13 21 13ZM12 2V4C12 4.55 12.45 5 13 5C13.55 5 14 4.55 14 4V2C14 1.45 13.55 1 13 1C12.45 1 12 1.45 12 2ZM12 20V22C12 22.55 12.45 23 13 23C13.55 23 14 22.55 14 22V20C14 19.45 13.55 19 13 19C12.45 19 12 19.45 12 20ZM6.99 4.58C6.6 4.19 5.96 4.19 5.58 4.58C5.19 4.97 5.19 5.61 5.58 5.99L6.64 7.05C7.03 7.44 7.67 7.44 8.05 7.05C8.43 6.66 8.44 6.02 8.05 5.64L6.99 4.58ZM19.36 16.95C18.97 16.56 18.33 16.56 17.95 16.95C17.56 17.34 17.56 17.98 17.95 18.36L19.01 19.42C19.4 19.81 20.04 19.81 20.42 19.42C20.81 19.03 20.81 18.39 20.42 18.01L19.36 16.95ZM20.42 5.99C20.81 5.6 20.81 4.96 20.42 4.58C20.03 4.19 19.39 4.19 19.01 4.58L17.95 5.64C17.56 6.03 17.56 6.67 17.95 7.05C18.34 7.43 18.98 7.44 19.36 7.05L20.42 5.99ZM8.05 18.36C8.44 17.97 8.44 17.33 8.05 16.95C7.66 16.56 7.02 16.56 6.64 16.95L5.58 18.01C5.19 18.4 5.19 19.04 5.58 19.42C5.97 19.8 6.61 19.81 6.99 19.42L8.05 18.36Z" fill="#B7B7B7"/>
</svg>
