<?xml version="1.0" encoding="utf-8"?>
<!-- Generator: Adobe Illustrator 25.4.1, SVG Export Plug-In . SVG Version: 6.00 Build 0)  -->
<svg version="1.1" id="Layer_1" xmlns="http://www.w3.org/2000/svg" xmlns:xlink="http://www.w3.org/1999/xlink" x="0px" y="0px"
	 viewBox="0 0 130 130" style="enable-background:new 0 0 130 130;" xml:space="preserve">
<style type="text/css">
	.st0{fill:#232C37;}
	.st1{fill:#745FAF;}
	.st2{fill:#9986CF;}
	.st3{opacity:0;}
</style>
<path class="st0" d="M103.1,90.9c-1.1,0-2-0.9-2-2c0-1.1,0.9-2,2-2c6.2,0,10.5-1.5,14-4.7c3.3-3.1,5.2-7.2,5.5-11.7
	c0.3-4.5-1.1-8.8-3.9-12.3c-2.8-3.4-6.7-5.7-11.1-6.3c-0.9-0.1-1.7-0.7-1.8-1.6c-1-5.5-3.6-10.5-7.5-14.4c-4-3.9-9-6.5-14.5-7.5
	c-5.5-0.9-11.1-0.2-16.1,2.3c-5,2.4-9.1,6.3-11.9,11.1c-0.5,0.9-1.5,1.2-2.4,0.9c-3.1-1.1-6.5-1.5-9.7-1.2c-3.3,0.3-6.5,1.4-9.3,3
	c-2.8,1.7-5.3,4-7.2,6.7c-1.9,2.7-3.1,5.8-3.7,9.1c-0.1,0.5-0.2,1-0.2,1.5c-0.1,1.1-1.1,1.9-2.2,1.8c-1.1-0.1-1.9-1.1-1.8-2.2
	c0.1-0.6,0.1-1.2,0.2-1.7c0.6-3.8,2.1-7.5,4.3-10.7s5.1-5.9,8.4-7.9s7.1-3.2,11-3.6c3.3-0.3,6.7,0,9.9,0.9
	c3.1-4.9,7.5-8.9,12.8-11.4c5.8-2.8,12.2-3.7,18.5-2.6c6.3,1.1,12.1,4,16.6,8.6c4.2,4.2,7.1,9.4,8.4,15.2c4.9,1,9.2,3.6,12.4,7.5
	c3.5,4.3,5.2,9.6,4.8,15.1s-2.8,10.6-6.8,14.3C115.5,89.1,110.3,90.9,103.1,90.9z"/>
<path class="st1" d="M64.8,106.4H23.3c-2.8,0-5.6-0.6-8.1-1.8c-2.5-1.2-4.8-2.9-6.6-5.1c-1.8-2.1-3.1-4.7-3.9-7.4
	c-0.7-2.7-0.9-5.6-0.4-8.3c0.5-2.8,1.6-5.4,3.1-7.7c1.6-2.3,3.7-4.3,6.1-5.7s5.1-2.3,7.9-2.6c2.2-0.2,4.5,0,6.7,0.5
	c2.2-3.4,5.3-6.1,9-7.8c4.2-2,8.8-2.6,13.3-1.9c4.6,0.8,8.7,2.9,12,6.2c2.9,2.9,5,6.6,5.9,10.6c3.4,0.8,6.4,2.6,8.7,5.4
	c2.5,3.1,3.8,7,3.5,11c-0.3,4-2,7.7-5,10.4C72.6,104.9,68.8,106.4,64.8,106.4z M23.3,71.7c-0.5,0-1,0-1.5,0.1
	c-2.2,0.2-4.4,0.9-6.3,2.1c-1.9,1.1-3.6,2.7-4.8,4.5c-1.3,1.8-2.1,3.9-2.5,6.1C7.8,86.7,8,89,8.5,91.1c0.6,2.1,1.6,4.2,3.1,5.9
	c1.4,1.7,3.2,3.1,5.3,4c2,0.9,4.2,1.4,6.5,1.4h41.5c3,0,5.8-1.1,8-3.1c2.2-2,3.5-4.8,3.7-7.8c0.2-3-0.7-5.9-2.6-8.2
	c-1.9-2.3-4.6-3.8-7.5-4.2c-0.9-0.1-1.6-0.8-1.7-1.6c-0.6-3.7-2.4-7.1-5.1-9.8c-2.7-2.7-6.1-4.4-9.8-5.1c-3.7-0.6-7.5-0.1-10.9,1.5
	c-3.4,1.6-6.2,4.3-8,7.6c-0.5,0.8-1.5,1.2-2.4,0.9C26.8,72,25,71.7,23.3,71.7z"/>
<path class="st2" d="M84.5,99.9c-0.5,0-1,0-1.4-0.1c-1.1-0.1-1.9-1.1-1.8-2.2s1.1-1.9,2.2-1.8c2.4,0.3,4.5-0.3,6-1.7
	c1.7-1.5,2.6-3.9,2.6-7V68.4c0-1.1,0.9-2,2-2c1.1,0,2,0.9,2,2v18.7c0,4.2-1.4,7.6-3.9,10C90.1,98.9,87.5,99.9,84.5,99.9z"/>
<path class="st2" d="M86,78.7c-0.5,0-1-0.2-1.4-0.6c-0.8-0.8-0.8-2,0-2.8l8.1-8.3c0.8-0.8,2-0.8,2.8,0c0.8,0.8,0.8,2,0,2.8l-8.1,8.3
	C87,78.5,86.5,78.7,86,78.7z"/>
<path class="st2" d="M102.2,78.7c-0.5,0-1-0.2-1.4-0.6l-8.1-8.3c-0.8-0.8-0.8-2.1,0-2.8c0.8-0.8,2.1-0.8,2.8,0l8.1,8.3
	c0.8,0.8,0.8,2.1,0,2.8C103.2,78.5,102.7,78.7,102.2,78.7z"/>
<rect y="0.5" class="st3" width="130" height="130"/>
</svg>
