<svg width="280" height="280" xmlns="http://www.w3.org/2000/svg"><style>.st1{fill:#fff}</style><path id="svg_1" fill="#3949ab" d="M0 0h280v280H0z"/><path class="st1" d="M82 179.25h115c7.2 0 13-5.8 13-13s-5.8-13-13-13H83c-21.5 0-39-17.5-39-39s17.5-39 39-39h104.5c4.5 7.8 12.9 13 22.5 13 14.4 0 26-11.6 26-26s-11.6-26-26-26c-9.6 0-18 5.2-22.5 13H82c-35.4.5-64 29.4-64 65s28.6 64.4 64 65z" id="svg_2"/><path class="st1" d="M195.4 100.35h-115c-7.2 0-13 5.8-13 13s5.8 13 13 13h114c21.5 0 39 17.5 39 39s-17.5 39-39 39H89.9c-4.5-7.8-12.9-13-22.5-13-14.4 0-26 11.6-26 26s11.6 26 26 26c9.6 0 18-5.2 22.5-13h105.5c35.4-.5 64-29.4 64-65s-28.6-64.4-64-65z" id="svg_3"/></svg>