<?xml version="1.0" encoding="utf-8"?>
<!-- Generator: Adobe Illustrator 25.4.1, SVG Export Plug-In . SVG Version: 6.00 Build 0)  -->
<svg version="1.1" id="Layer_1" xmlns="http://www.w3.org/2000/svg" xmlns:xlink="http://www.w3.org/1999/xlink" x="0px" y="0px"
	 viewBox="0 0 830 330" style="enable-background:new 0 0 830 330;" xml:space="preserve">
<style type="text/css">
	.st0{fill:none;}
	.st1{fill:#FFFFFF;}
</style>
<rect class="st0" width="830" height="330"/>
<g>
	<g>
		<path class="st1" d="M205.5,181.7h49.4c3.1,0,5.6-2.5,5.6-5.6s-2.5-5.6-5.6-5.6h-49c-9.2,0-16.7-7.5-16.7-16.7s7.5-16.7,16.7-16.7
			h44.9c1.9,3.3,5.5,5.6,9.7,5.6c6.2,0,11.2-5,11.2-11.2s-5-11.2-11.2-11.2c-4.1,0-7.7,2.2-9.7,5.6h-45.3l0,0
			c-15.2,0.2-27.5,12.6-27.5,27.9S190.3,181.5,205.5,181.7L205.5,181.7z"/>
		<path class="st1" d="M255.4,148.3L255.4,148.3H206c-3.1,0-5.6,2.5-5.6,5.6s2.5,5.6,5.6,5.6h49c9.2,0,16.7,7.5,16.7,16.7
			s-7.5,16.7-16.7,16.7h-44.9c-1.9-3.3-5.5-5.6-9.7-5.6c-6.2,0-11.2,5-11.2,11.2s5,11.2,11.2,11.2c4.1,0,7.7-2.2,9.7-5.6h45.3l0,0
			c15.2-0.2,27.5-12.6,27.5-27.9S270.6,148.5,255.4,148.3z"/>
	</g>
	<g>
		<path class="st1" d="M345.6,162.8c-1.4-1.1-3.5-1.7-6.2-1.7c-3.5,0-6.4,1.6-8.8,4.8s-3.5,7.5-3.5,12.9v25.1h-11.9v-52.4h11.9v10.8
			h0.2c1.2-3.7,2.9-6.6,5.3-8.6c2.4-2.1,5.1-3.1,8.1-3.1c2.1,0,3.8,0.3,4.9,1V162.8z"/>
		<path class="st1" d="M540.2,203.9h-11.9v-77.5h11.9V203.9z"/>
		<path class="st1" d="M601.9,151.5l-20.3,52.4h-12.8l-19.3-52.4h12.9l11.6,36.6c0.9,2.7,1.4,5,1.6,7.1h0.2c0.3-2.5,0.8-4.8,1.4-6.9
			l12.2-36.8L601.9,151.5L601.9,151.5z"/>
		<path class="st1" d="M397.6,180.2h-35c0.1,4.7,1.6,8.4,4.4,11s6.6,3.9,11.5,3.9c5.5,0,10.5-1.6,15.1-4.9v9.4
			c-4.7,2.9-10.9,4.4-18.5,4.4c-7.5,0-13.5-2.3-17.8-7s-6.4-11.2-6.4-19.7c0-8,2.4-14.5,7.1-19.5s10.6-7.5,17.6-7.5
			s12.4,2.3,16.3,6.8c3.8,4.5,5.8,10.8,5.8,18.8v4.3H397.6z M386.4,172c0-4.2-1-7.4-3-9.7c-1.9-2.3-4.6-3.5-8-3.5
			c-3.3,0-6.2,1.2-8.5,3.7c-2.3,2.4-3.7,5.6-4.3,9.6h23.8V172z"/>
		<path class="st1" d="M408.2,199.8v-12.3c1.1,1,2.4,1.9,3.9,2.7s3.1,1.5,4.8,2c1.7,0.6,3.4,1,5.1,1.3s3.3,0.5,4.7,0.5
			c5,0,8.7-0.8,11.2-2.5s3.7-4.1,3.7-7.3c0-1.7-0.4-3.2-1.2-4.4c-0.8-1.3-2-2.4-3.4-3.4c-1.5-1-3.2-2-5.2-3s-4.1-1.9-6.4-3
			c-2.4-1.3-4.7-2.6-6.8-4c-2.1-1.3-3.9-2.8-5.5-4.4c-1.6-1.6-2.8-3.4-3.7-5.5c-0.9-2-1.3-4.4-1.3-7.2c0-3.4,0.8-6.3,2.3-8.8
			s3.5-4.5,6-6.2c2.5-1.6,5.3-2.8,8.5-3.6s6.4-1.2,9.7-1.2c7.5,0,13,0.9,16.4,2.6V144c-4.1-2.9-9.3-4.4-15.7-4.4
			c-1.8,0-3.5,0.2-5.3,0.5s-3.3,0.9-4.7,1.7c-1.4,0.8-2.5,1.8-3.4,3s-1.3,2.7-1.3,4.4c0,1.6,0.3,3,1,4.2s1.6,2.2,2.9,3.2
			s2.9,1.9,4.7,2.8c1.9,0.9,4,1.9,6.4,3c2.5,1.3,4.9,2.7,7.1,4.1c2.2,1.4,4.2,3,5.9,4.8c1.7,1.7,3,3.7,4,5.8s1.5,4.5,1.5,7.2
			c0,3.6-0.7,6.7-2.2,9.2s-3.4,4.5-5.9,6.1s-5.4,2.7-8.6,3.4s-6.7,1.1-10.3,1.1c-1.2,0-2.7-0.1-4.4-0.3c-1.8-0.2-3.5-0.5-5.4-0.8
			c-1.8-0.4-3.6-0.8-5.2-1.3C410.5,201,409.2,200.4,408.2,199.8z"/>
		<path class="st1" d="M490.8,203.9c-7.9,0-14.2-2.4-19-7.2c-4.7-4.8-7.1-11.1-7.1-19.1c0-8.6,2.5-15.3,7.4-20.2
			c4.9-4.8,11.6-7.3,19.9-7.3c8,0,14.3,2.4,18.7,7.1c4.5,4.7,6.7,11.2,6.7,19.6c0,8.2-2.4,14.7-7.2,19.7S498.9,203.9,490.8,203.9z
			 M491.3,159.4c-4.5,0-8.1,1.6-10.8,4.8c-2.6,3.2-4,7.5-4,13.1c0,5.4,1.3,9.6,4,12.7c2.7,3.1,6.2,4.6,10.7,4.6
			c4.6,0,8.1-1.5,10.5-4.6c2.5-3,3.7-7.4,3.7-13s-1.2-10-3.7-13.1C499.4,161,495.9,159.4,491.3,159.4z"/>
		<path class="st1" d="M651.9,180.2h-35c0.1,4.7,1.6,8.4,4.4,11c2.8,2.6,6.6,3.9,11.5,3.9c5.5,0,10.5-1.6,15.1-4.9v9.4
			c-4.7,2.9-10.9,4.4-18.5,4.4c-7.5,0-13.5-2.3-17.8-7s-6.4-11.2-6.4-19.7c0-8,2.4-14.5,7.1-19.5c4.7-5,10.6-7.5,17.6-7.5
			s12.4,2.3,16.3,6.8c3.8,4.5,5.8,10.8,5.8,18.8L651.9,180.2L651.9,180.2z M640.7,172c0-4.2-1-7.4-3-9.7c-1.9-2.3-4.6-3.5-8-3.5
			c-3.3,0-6.2,1.2-8.5,3.7c-2.3,2.4-3.7,5.6-4.3,9.6h23.8V172z"/>
	</g>
</g>
</svg>
