<svg width="280" height="280" xmlns="http://www.w3.org/2000/svg">
    <style type="text/css">.st1{fill:#3949AB;}</style>
    <g>
        <title>reSolveLogo</title>
        <path class="st1"
              d="m82,179.25l115,0c7.2,0 13,-5.8 13,-13s-5.8,-13 -13,-13l-114,0c-21.5,0 -39,-17.5 -39,-39c0,-21.5 17.5,-39 39,-39l104.5,0c4.5,7.8 12.9,13 22.5,13c14.4,0 26,-11.6 26,-26c0,-14.4 -11.6,-26 -26,-26c-9.6,0 -18,5.2 -22.5,13l-105.5,0l0,0c-35.4,0.5 -64,29.4 -64,65s28.6,64.4 64,65l0,0z"
              id="svg_2"
        />
        <path class="st1"
              d="m195.4,100.35l0,0l-115,0c-7.2,0 -13,5.8 -13,13s5.8,13 13,13l114,0c21.5,0 39,17.5 39,39c0,21.5 -17.5,39 -39,39l-104.5,0c-4.5,-7.8 -12.9,-13 -22.5,-13c-14.4,0 -26,11.6 -26,26c0,14.4 11.6,26 26,26c9.6,0 18,-5.2 22.5,-13l105.5,0l0,0c35.4,-0.5 64,-29.4 64,-65s-28.6,-64.4 -64,-65z"
              id="svg_3"
        />
    </g>
</svg>
